<svg width="156" height="79" viewBox="0 0 156 79" fill="none" xmlns="http://www.w3.org/2000/svg">
<path fill-rule="evenodd" clip-rule="evenodd" d="M121.248 0C112.998 0 105.598 3.63948 100.563 9.46265C104.264 14.4973 106.447 20.745 106.447 27.4781C106.447 34.2111 104.264 40.3982 100.563 45.4935C105.113 50.7101 111.603 54.2282 118.882 54.8348C118.943 52.7118 118.943 51.3773 118.943 51.3773C119.125 45.5542 119.246 40.8835 119.125 39.3064C119.125 39.0638 119.064 38.6998 118.579 38.3965C114.939 35.9095 112.392 31.7241 112.392 24.5665C112.452 16.499 117.244 9.94791 121.309 9.94791C125.373 9.94791 130.104 16.5596 130.043 24.6271C129.983 31.7848 127.435 35.9095 123.735 38.3359C123.25 38.6391 123.189 39.0031 123.189 39.2457C123.128 39.913 123.189 46.646 123.31 54.7742C137.504 53.6823 148.665 41.854 148.665 27.4174C148.665 12.2529 136.412 0 121.248 0Z" fill="#F4EDE8"/>
<path fill-rule="evenodd" clip-rule="evenodd" d="M75.936 0C60.7715 0 48.5186 12.2529 48.5186 27.4174C48.5186 41.7327 59.437 53.4397 73.3883 54.7135C73.449 50.0428 73.5096 45.2509 73.5703 41.1868C69.6275 39.8523 68.2931 34.1505 68.657 28.0847C69.0816 20.4417 71.9932 10.3725 74.2375 6.85435C75.754 4.48869 77.5737 5.76251 77.5737 7.27896C77.5737 8.43146 77.2098 36.7587 77.2704 41.1261C77.3311 45.1902 77.3918 49.9822 77.5131 54.7135C91.889 53.8643 103.293 41.9147 103.293 27.3568C103.353 12.2529 91.1005 0 75.936 0Z" fill="#F4EDE8"/>
<path fill-rule="evenodd" clip-rule="evenodd" d="M51.6713 8.97738C46.6367 3.45751 39.4184 0 31.4116 0C16.2471 0 3.99414 12.2529 3.99414 27.4174C3.99414 41.7934 15.0339 53.561 29.1066 54.7742C29.1672 49.4363 29.2279 44.7049 29.2885 41.4901C27.3475 40.5195 26.013 39.0031 25.1638 37.1833C23.6473 33.9078 23.7686 30.4503 24.1933 26.9322C24.4965 24.0206 26.195 7.27896 26.195 7.27896C26.195 6.97567 26.8015 6.97567 26.8015 7.27896L26.9229 26.9928C26.9229 28.024 28.318 28.024 28.318 26.9928L29.4705 7.27896C29.4705 6.97567 30.0771 6.97567 30.0771 7.27896L30.6837 26.9928C30.6837 27.5387 31.0476 27.7814 31.4116 27.7814C31.7755 27.7814 32.1395 27.5387 32.1395 26.9928L32.746 7.27896C32.746 6.97567 33.3526 6.97567 33.3526 7.27896L34.6264 26.9928C34.6264 28.024 36.0216 28.024 36.0216 26.9928L36.0822 7.27896C36.0822 6.97567 36.6888 6.97567 36.6888 7.27896C36.6888 7.27896 38.3872 24.0812 38.6905 26.9322C39.0545 30.4503 39.2364 33.9078 37.72 37.1833C36.8708 39.0031 35.5363 40.5195 33.5952 41.4901C33.6559 44.7049 33.7166 49.4363 33.7772 54.7742C40.8742 54.1676 47.1826 50.8921 51.732 45.9181C47.8499 40.7622 45.4842 34.3931 45.4842 27.4174C45.4236 20.5024 47.7286 14.0727 51.6713 8.97738Z" fill="#F4EDE8"/>
<path d="M7.62372 74.2267C6.46505 74.2267 5.43789 74.017 4.54224 73.5976C3.64659 73.1711 2.94641 72.5598 2.44172 71.7637C1.94414 70.9676 1.69534 70.0044 1.69534 68.8741V60.4507L0 60.1309V58.4782H6.06698V60.1309L4.37164 60.4507V68.8741C4.37164 69.5921 4.5067 70.1963 4.77682 70.6868C5.04694 71.1701 5.42723 71.5327 5.91771 71.7744C6.40819 72.016 6.98041 72.1369 7.63438 72.1369C8.30967 72.1369 8.89256 72.016 9.38303 71.7744C9.88062 71.5327 10.2645 71.1701 10.5346 70.6868C10.8118 70.2034 10.9504 69.5992 10.9504 68.8741V60.4507L9.25508 60.1309V58.4782H15.3221V60.1309L13.6374 60.4507V68.8741C13.6374 70.0186 13.385 70.9889 12.8803 71.785C12.3828 72.5812 11.6826 73.1889 10.7798 73.6083C9.87707 74.0206 8.82503 74.2267 7.62372 74.2267Z" fill="#F4EDE8"/>
<path d="M16.5376 74.0028V72.3608L18.1476 72.0409V64.4385L16.4523 64.1187V62.466H20.6107L20.7386 63.98C21.1154 63.4327 21.5845 63.0097 22.1461 62.7112C22.7148 62.4055 23.3723 62.2527 24.1187 62.2527C24.8721 62.2527 25.5155 62.4233 26.0486 62.7645C26.5888 63.0986 26.9975 63.6068 27.2748 64.2893C27.6302 63.6566 28.0958 63.159 28.6716 62.7965C29.2545 62.434 29.9369 62.2527 30.7188 62.2527C31.8774 62.2527 32.7873 62.6472 33.4484 63.4362C34.1166 64.2253 34.4507 65.4195 34.4507 67.0189V72.0409L36.0607 72.3608V74.0028H30.2496V72.3608L31.7637 72.0409V67.0082C31.7637 66.0344 31.6002 65.352 31.2732 64.961C30.9462 64.57 30.4664 64.3746 29.8338 64.3746C29.2438 64.3746 28.7569 64.5629 28.373 64.9397C27.9963 65.3164 27.751 65.7962 27.6373 66.3791V72.0409L29.0981 72.3608V74.0028H23.5002V72.3608L24.961 72.0409V67.0082C24.961 66.0699 24.794 65.3982 24.4599 64.993C24.1258 64.5807 23.6424 64.3746 23.0098 64.3746C22.4837 64.3746 22.0395 64.4812 21.6769 64.6944C21.3215 64.9077 21.0372 65.2098 20.8239 65.6007V72.0409L22.3274 72.3608V74.0028H16.5376Z" fill="#F4EDE8"/>
<path d="M42.6395 74.0028V72.3608L44.2389 72.0409V64.4385L42.5542 64.1187V62.466H46.7126L46.8512 64.14C47.235 63.5429 47.7113 63.0808 48.28 62.7538C48.8558 62.4198 49.5062 62.2527 50.2312 62.2527C51.4183 62.2527 52.3424 62.6188 53.0035 63.3509C53.6646 64.076 53.9951 65.2133 53.9951 66.763V72.0409L55.5945 72.3608V74.0028H49.8047V72.3608L51.3081 72.0409V66.7843C51.3081 65.91 51.134 65.2915 50.7857 64.929C50.4374 64.5594 49.9185 64.3746 49.2289 64.3746C48.71 64.3746 48.2551 64.4918 47.8641 64.7264C47.4803 64.9539 47.1675 65.2738 46.9258 65.686V72.0409L48.3866 72.3608V74.0028H42.6395Z" fill="#F4EDE8"/>
<path d="M62.056 74.2267C60.9471 74.2267 59.9946 73.9779 59.1984 73.4804C58.4023 72.9828 57.791 72.2933 57.3645 71.4118C56.938 70.5233 56.7247 69.5032 56.7247 68.3517V68.1278C56.7247 66.9833 56.938 65.9704 57.3645 65.0889C57.791 64.2075 58.4023 63.5144 59.1984 63.0097C59.9946 62.5051 60.94 62.2527 62.0347 62.2527C63.1436 62.2527 64.0961 62.5051 64.8922 63.0097C65.6883 63.5073 66.2997 64.1968 66.7262 65.0783C67.1527 65.9597 67.3659 66.9762 67.3659 68.1278V68.3517C67.3659 69.5032 67.1527 70.5233 66.7262 71.4118C66.2997 72.2933 65.6883 72.9828 64.8922 73.4804C64.1032 73.9779 63.1578 74.2267 62.056 74.2267ZM62.056 72.1582C62.6531 72.1582 63.1436 71.9983 63.5274 71.6784C63.9184 71.3514 64.2098 70.9036 64.4017 70.3349C64.5937 69.7591 64.6896 69.0981 64.6896 68.3517V68.1278C64.6896 67.3885 64.5937 66.7345 64.4017 66.1659C64.2098 65.5972 63.9184 65.1494 63.5274 64.8224C63.1364 64.4954 62.6389 64.3319 62.0347 64.3319C61.4447 64.3319 60.9542 64.4954 60.5632 64.8224C60.1723 65.1494 59.8808 65.5972 59.6889 66.1659C59.5041 66.7345 59.4117 67.3885 59.4117 68.1278V68.3517C59.4117 69.0981 59.5041 69.7591 59.6889 70.3349C59.8808 70.9036 60.1723 71.3514 60.5632 71.6784C60.9613 71.9983 61.4589 72.1582 62.056 72.1582Z" fill="#F4EDE8"/>
<path d="M68.784 74.0028V72.3608L70.3941 72.0409V64.4385L68.6987 64.1187V62.466H72.8571L72.9851 63.98C73.3618 63.4327 73.831 63.0097 74.3925 62.7112C74.9612 62.4055 75.6187 62.2527 76.3651 62.2527C77.1186 62.2527 77.7619 62.4233 78.295 62.7645C78.8353 63.0986 79.244 63.6068 79.5212 64.2893C79.8766 63.6566 80.3422 63.159 80.918 62.7965C81.5009 62.434 82.1833 62.2527 82.9652 62.2527C84.1239 62.2527 85.0338 62.6472 85.6948 63.4362C86.363 64.2253 86.6971 65.4195 86.6971 67.0189V72.0409L88.3072 72.3608V74.0028H82.4961V72.3608L84.0101 72.0409V67.0082C84.0101 66.0344 83.8466 65.352 83.5197 64.961C83.1927 64.57 82.7129 64.3746 82.0802 64.3746C81.4902 64.3746 81.0033 64.5629 80.6195 64.9397C80.2427 65.3164 79.9975 65.7962 79.8837 66.3791V72.0409L81.3445 72.3608V74.0028H75.7467V72.3608L77.2074 72.0409V67.0082C77.2074 66.0699 77.0404 65.3982 76.7063 64.993C76.3722 64.5807 75.8888 64.3746 75.2562 64.3746C74.7302 64.3746 74.2859 64.4812 73.9234 64.6944C73.568 64.9077 73.2836 65.2098 73.0704 65.6007V72.0409L74.5738 72.3608V74.0028H68.784Z" fill="#F4EDE8"/>
<path d="M94.8433 74.2267C93.7557 74.2267 92.8067 73.9851 91.9964 73.5017C91.1931 73.0112 90.5676 72.3359 90.1198 71.4758C89.6791 70.6157 89.4587 69.6312 89.4587 68.5223V68.0745C89.4587 66.9513 89.6755 65.9526 90.1091 65.0783C90.5498 64.1968 91.154 63.5073 91.9217 63.0097C92.6894 62.5051 93.5638 62.2527 94.5447 62.2527C95.5897 62.2527 96.464 62.4624 97.1677 62.8818C97.8786 63.3012 98.4152 63.8983 98.7778 64.6731C99.1403 65.4408 99.3215 66.3649 99.3215 67.4454V68.9808H92.2416L92.2203 69.0341C92.2487 69.6383 92.3731 70.175 92.5935 70.6441C92.821 71.1133 93.1408 71.4829 93.5531 71.753C93.9725 72.0231 94.4808 72.1582 95.0779 72.1582C95.7034 72.1582 96.2721 72.0729 96.7839 71.9023C97.2957 71.7317 97.7684 71.49 98.202 71.1773L99.0443 72.8619C98.5894 73.2458 98.01 73.5692 97.3063 73.8322C96.6026 74.0952 95.7816 74.2267 94.8433 74.2267ZM92.2843 67.0935H96.7519V66.8163C96.7519 66.3116 96.6737 65.8709 96.5173 65.4941C96.368 65.1103 96.1299 64.8117 95.8029 64.5985C95.483 64.3852 95.0743 64.2786 94.5767 64.2786C94.1431 64.2786 93.7628 64.3994 93.4358 64.6411C93.1088 64.8828 92.8458 65.2133 92.6468 65.6327C92.4549 66.045 92.3234 66.5142 92.2523 67.0402L92.2843 67.0935Z" fill="#F4EDE8"/>
<path d="M106.092 74.0028V72.3608L107.702 72.0409V59.3418L105.996 59.022V57.3693H110.379V72.0409L111.989 72.3608V74.0028H106.092Z" fill="#F4EDE8"/>
<path d="M118.407 74.2267C117.32 74.2267 116.371 73.9851 115.561 73.5017C114.757 73.0112 114.132 72.3359 113.684 71.4758C113.243 70.6157 113.023 69.6312 113.023 68.5223V68.0745C113.023 66.9513 113.24 65.9526 113.673 65.0783C114.114 64.1968 114.718 63.5073 115.486 63.0097C116.254 62.5051 117.128 62.2527 118.109 62.2527C119.154 62.2527 120.028 62.4624 120.732 62.8818C121.443 63.3012 121.979 63.8983 122.342 64.6731C122.704 65.4408 122.886 66.3649 122.886 67.4454V68.9808H115.806L115.785 69.0341C115.813 69.6383 115.937 70.175 116.158 70.6441C116.385 71.1133 116.705 71.4829 117.117 71.753C117.537 72.0231 118.045 72.1582 118.642 72.1582C119.268 72.1582 119.836 72.0729 120.348 71.9023C120.86 71.7317 121.333 71.49 121.766 71.1773L122.609 72.8619C122.154 73.2458 121.574 73.5692 120.871 73.8322C120.167 74.0952 119.346 74.2267 118.407 74.2267ZM115.848 67.0935H120.316V66.8163C120.316 66.3116 120.238 65.8709 120.082 65.4941C119.932 65.1103 119.694 64.8117 119.367 64.5985C119.047 64.3852 118.639 64.2786 118.141 64.2786C117.707 64.2786 117.327 64.3994 117 64.6411C116.673 64.8828 116.41 65.2133 116.211 65.6327C116.019 66.045 115.888 66.5142 115.816 67.0402L115.848 67.0935Z" fill="#F4EDE8"/>
<path d="M129.678 78.6624C129.109 78.6624 128.476 78.5842 127.78 78.4278C127.09 78.2785 126.483 78.0688 125.957 77.7987L126.511 75.8368C126.966 76.0429 127.467 76.21 128.014 76.3379C128.562 76.4659 129.081 76.5298 129.571 76.5298C130.453 76.5298 131.096 76.2846 131.501 75.7941C131.913 75.3108 132.12 74.6248 132.12 73.7363V72.8299C131.764 73.2849 131.341 73.6332 130.851 73.8749C130.36 74.1094 129.799 74.2267 129.166 74.2267C128.228 74.2267 127.417 73.9922 126.735 73.523C126.06 73.0539 125.541 72.3963 125.178 71.5504C124.823 70.7045 124.645 69.7236 124.645 68.6076V68.3837C124.645 67.1539 124.823 66.0806 125.178 65.1636C125.541 64.2466 126.056 63.5322 126.724 63.0204C127.4 62.5086 128.203 62.2527 129.134 62.2527C129.838 62.2527 130.449 62.3984 130.968 62.6899C131.487 62.9742 131.928 63.3829 132.29 63.9161L132.493 62.466H134.806V73.7469C134.806 74.7492 134.604 75.6164 134.199 76.3486C133.794 77.0879 133.207 77.6565 132.439 78.0546C131.672 78.4598 130.751 78.6624 129.678 78.6624ZM129.891 72.1049C130.41 72.1049 130.851 71.9947 131.213 71.7744C131.583 71.554 131.885 71.2341 132.12 70.8147V65.6754C131.885 65.2702 131.583 64.9539 131.213 64.7264C130.844 64.4918 130.406 64.3746 129.902 64.3746C129.312 64.3746 128.825 64.5452 128.441 64.8864C128.064 65.2204 127.783 65.6896 127.599 66.2938C127.421 66.8909 127.332 67.5875 127.332 68.3837V68.6076C127.332 69.6738 127.535 70.5233 127.94 71.1559C128.352 71.7886 129.003 72.1049 129.891 72.1049ZM134.444 64.4918L133.314 62.466H136.193V64.1187L134.444 64.4918Z" fill="#F4EDE8"/>
<path d="M141.012 74.2267C139.839 74.2267 138.926 73.9246 138.272 73.3204C137.618 72.7162 137.291 71.8845 137.291 70.8254C137.291 70.1003 137.49 69.4641 137.888 68.9168C138.286 68.3694 138.869 67.9429 139.637 67.6373C140.404 67.3245 141.335 67.1681 142.43 67.1681H144.189V66.1978C144.189 65.5865 144.005 65.0996 143.635 64.7371C143.273 64.3746 142.743 64.1933 142.046 64.1933C141.648 64.1933 141.296 64.243 140.991 64.3426C140.685 64.435 140.411 64.57 140.17 64.7477L139.924 66.3045H137.952L137.931 63.4576C138.499 63.0879 139.132 62.7965 139.829 62.5832C140.525 62.3629 141.3 62.2527 142.153 62.2527C143.617 62.2527 144.769 62.5975 145.608 63.287C146.454 63.9694 146.876 64.9503 146.876 66.2298V71.3159C146.876 71.4722 146.876 71.6251 146.876 71.7744C146.884 71.9236 146.894 72.0694 146.908 72.2115L148.081 72.3608V74.0028H144.573C144.502 73.754 144.435 73.5123 144.371 73.2778C144.314 73.0432 144.271 72.8086 144.243 72.574C143.859 73.0574 143.393 73.4555 142.846 73.7682C142.306 74.0739 141.694 74.2267 141.012 74.2267ZM141.62 72.1475C142.16 72.1475 142.665 72.0231 143.134 71.7744C143.603 71.5185 143.955 71.1986 144.189 70.8147V68.8848H142.398C141.595 68.8848 140.987 69.0732 140.575 69.4499C140.17 69.8196 139.967 70.2532 139.967 70.7507C139.967 71.1986 140.109 71.5433 140.394 71.785C140.678 72.0267 141.087 72.1475 141.62 72.1475Z" fill="#F4EDE8"/>
<path d="M149.254 74.0028V72.3608L150.864 72.0409V59.3418L149.158 59.022V57.3693H153.541V72.0409L155.151 72.3608V74.0028H149.254Z" fill="#F4EDE8"/>
</svg>
