<svg width="397" height="247" viewBox="0 0 397 247" fill="none" xmlns="http://www.w3.org/2000/svg">
<g clip-path="url(#clip0)">
<g opacity="0.5">
<path opacity="0.5" d="M330.249 244.426C344.693 231.846 356.052 215.633 359.137 197.323C362.222 178.733 355.631 158.186 339.645 146.725C328.987 139.037 315.244 136.102 302.062 134.145C297.715 133.446 293.087 132.887 289.581 130.232C282.71 125.2 282.991 115.556 283.411 107.449C284.393 86.2033 281.448 64.6783 274.857 44.2715C272.193 36.1646 268.547 27.6385 260.974 23.1658C254.944 19.5317 247.371 18.9726 240.219 18.693C222.129 18.134 203.478 18.9726 186.931 25.8215C169.542 32.9499 155.519 46.2283 145.282 61.3237C135.045 76.4192 128.033 93.1919 121.442 109.965C119.759 114.158 117.936 118.77 114.01 121.286C110.364 123.662 105.736 123.942 101.248 123.802C79.6525 123.383 56.2336 116.674 37.4423 126.877C20.0534 136.242 13.8831 156.509 9.39568 174.959C4.06682 196.903 -0.560867 221.224 7.99335 241.491L330.249 244.426Z" fill="#FCFAF1"/>
</g>
<path d="M215.539 66.9147C215.539 66.9147 231.245 58.3885 223.812 27.0794C217.081 -1.15464 204.881 5.97377 204.881 5.97377L215.539 66.9147Z" fill="black"/>
<path d="M229.703 43.0135C230.684 47.0669 228.16 51.2601 224.093 52.2385C220.026 53.2169 215.819 50.701 214.838 46.6476C213.856 42.5942 216.38 38.401 220.447 37.4226C224.514 36.4442 228.721 38.9601 229.703 43.0135Z" fill="#CD7B77"/>
<path d="M218.625 47.067C218.765 46.2283 219.046 45.5295 219.466 44.8306C219.887 44.1317 220.588 43.5726 221.43 43.2931C222.271 43.0135 223.253 43.0135 224.094 43.4329C224.935 43.8522 225.356 44.551 225.637 45.2499C224.795 44.9704 224.234 44.6908 223.673 44.6908C223.112 44.551 222.552 44.6908 221.991 44.8306C221.009 45.2499 219.887 46.0885 218.625 47.067Z" fill="black"/>
<path d="M164.073 36.0249C166.317 21.9078 180.34 -1.57398 205.442 12.8226C213.295 17.4351 216.661 25.6817 218.203 34.3476C219.325 40.3578 217.222 99.6215 217.222 99.6215C215.819 115.695 198.851 123.523 187.773 117.792C182.584 115.136 178.658 109.406 178.237 100.181L179.639 80.4726C161.409 74.4624 161.549 51.8192 164.073 36.0249Z" fill="#CD7B77"/>
<path d="M179.498 80.3328C179.498 80.3328 189.735 83.6873 209.088 71.8066C209.088 71.8066 198.57 87.601 178.938 94.0305L179.498 80.3328Z" fill="#B15B5A"/>
<path d="M212.314 55.4533C212.314 61.184 207.686 65.7965 201.937 65.7965C196.187 65.7965 191.56 61.184 191.56 55.4533C191.56 49.7226 196.187 45.1101 201.937 45.1101C207.686 45.1101 212.314 49.7226 212.314 55.4533Z" fill="#C86462"/>
<path d="M174.732 48.3249C174.732 42.5942 170.104 37.9817 164.354 37.9817C164.214 37.9817 163.934 37.9817 163.793 37.9817C162.952 44.4112 162.391 51.8192 163.513 58.6681C163.793 58.6681 164.074 58.6681 164.354 58.6681C170.104 58.6681 174.732 54.0556 174.732 48.3249Z" fill="#C86462"/>
<path d="M186.511 50.8408C184.968 55.1738 180.06 56.851 177.115 50.9806L186.511 50.8408Z" fill="white"/>
<path d="M182.865 28.0579C183.145 29.0363 182.865 30.1545 182.585 31.1329C182.304 32.1113 181.883 33.0897 181.463 34.0681C180.902 35.0465 180.481 35.8851 179.78 36.7238C179.219 37.5624 178.518 38.401 177.817 39.0999L177.676 38.1215C179.359 39.659 181.042 41.1965 182.585 42.8738C180.481 41.7556 178.658 40.4976 176.695 39.2397L176.134 38.8204L176.554 38.2613C177.676 36.584 178.798 35.0465 179.92 33.3692C180.481 32.5306 181.042 31.692 181.463 30.8533C182.164 30.0147 182.585 29.0363 182.865 28.0579Z" fill="black"/>
<path d="M194.644 36.5839C194.364 35.326 194.083 34.068 193.803 32.9498C193.662 32.3908 193.382 31.8317 193.102 31.4123C192.821 30.993 192.541 30.8533 192.4 30.8533C192.26 30.8533 191.98 30.993 191.699 31.4123C191.419 31.8317 191.138 32.3908 190.858 32.8101C190.297 33.9283 189.876 35.0464 189.455 36.3044C189.315 36.5839 188.895 36.8635 188.614 36.7237C188.334 36.5839 188.193 36.3044 188.193 36.0248C188.334 34.6271 188.614 33.3692 189.035 31.9714C189.315 31.2726 189.596 30.7135 190.016 30.0146C190.297 29.7351 190.577 29.3158 190.998 29.0362C191.419 28.7567 191.98 28.4771 192.541 28.6169C193.102 28.6169 193.662 28.8964 194.083 29.176C194.504 29.4555 194.644 29.8748 194.925 30.1544C195.345 30.8533 195.485 31.5521 195.626 32.251C195.906 33.6487 195.906 34.9067 195.906 36.3044C195.906 36.5839 195.626 36.8635 195.345 36.8635C194.925 37.143 194.644 36.8635 194.644 36.5839Z" fill="black"/>
<path d="M174.17 35.1862C173.89 33.9283 173.61 32.6703 173.329 31.5521C173.189 30.993 172.908 30.434 172.628 30.0146C172.347 29.5953 172.067 29.4555 171.927 29.4555C171.786 29.4555 171.506 29.5953 171.226 30.0146C170.945 30.434 170.665 30.993 170.384 31.4124C169.823 32.5305 169.403 33.6487 168.982 34.9067C168.842 35.1862 168.421 35.4658 168.14 35.326C167.86 35.1862 167.72 34.9067 167.72 34.6271C167.86 33.2294 168.14 31.9715 168.561 30.5737C168.842 29.8749 169.122 29.3158 169.543 28.6169C169.823 28.3374 170.104 27.918 170.524 27.6385C170.945 27.359 171.506 27.0794 172.067 27.2192C172.628 27.2192 173.189 27.4987 173.61 27.7783C174.03 28.0578 174.17 28.4771 174.451 28.7567C174.872 29.4555 175.012 30.1544 175.152 30.8533C175.433 32.251 175.433 33.509 175.433 34.9067C175.433 35.1862 175.152 35.4658 174.872 35.4658C174.451 35.6055 174.17 35.4658 174.17 35.1862Z" fill="black"/>
<path d="M212.594 6.6726C212.594 6.6726 205.863 19.8112 195.486 22.8862C185.108 25.9612 193.943 18.9726 195.345 17.2953C196.748 15.6181 181.462 23.3056 173.469 21.0692C165.476 18.6931 174.03 0.941915 192.12 0.66237C210.21 0.382824 212.594 6.6726 212.594 6.6726Z" fill="black"/>
<path d="M205.442 12.8226C205.442 12.8226 202.077 48.7442 218.203 37.9817C218.203 37.9817 225.496 13.242 211.192 4.71582L205.442 12.8226Z" fill="black"/>
<path d="M217.922 93.1918C217.922 92.9123 219.324 92.7725 221.848 92.0736C224.373 91.5146 228.019 90.3964 232.085 88.2998C234.189 87.3214 236.292 85.9236 238.396 84.3861C239.518 83.5475 240.499 82.7089 241.621 81.7305C242.042 81.3111 242.463 80.752 242.603 80.3327C242.743 79.9134 242.603 79.9134 242.603 79.7736C242.463 79.6339 241.902 79.6339 241.341 79.7736C240.78 79.9134 239.939 80.193 239.237 80.4725C237.835 81.0316 236.292 81.7305 234.89 82.5691C232.085 84.1066 229.281 86.2032 226.897 88.5793L224.934 86.4827C225.074 86.343 225.214 86.343 225.354 86.2032C228.019 83.8271 230.403 81.3111 232.506 78.7952C233.628 77.5373 234.61 76.2793 235.451 74.8816C235.872 74.1827 236.433 73.6236 236.853 72.9248C237.274 72.2259 237.695 71.6668 237.975 71.1077C238.256 70.5486 238.256 69.9895 238.256 69.9895C238.256 69.9895 238.256 69.9895 238.115 69.8498C237.975 69.8498 237.695 69.71 237.414 69.71C236.152 69.5702 235.03 69.9895 233.908 70.5486C231.665 71.6668 229.982 73.4839 228.439 75.3009C222.269 82.2896 219.184 87.3214 218.763 87.0418C218.483 86.9021 221.007 81.4509 226.897 74.043C228.439 72.2259 230.122 70.1293 232.787 68.5918C234.189 67.893 235.732 67.3339 237.555 67.3339C237.975 67.3339 238.396 67.3339 239.097 67.6134C239.658 67.7532 240.359 68.3123 240.64 68.8714C241.06 69.5702 241.06 70.2691 240.92 70.8282C240.78 71.3873 240.64 71.8066 240.499 72.2259C240.079 73.2043 239.658 73.7634 239.237 74.4623C238.817 75.1611 238.396 75.86 237.835 76.5589C236.853 77.9566 235.872 79.3543 234.75 80.6123C232.506 83.268 230.122 85.9236 227.318 88.2998C227.177 88.4396 227.037 88.5793 226.897 88.5793L224.934 86.4827C227.598 83.8271 230.543 81.7305 233.628 80.0532C235.171 79.2145 236.713 78.5157 238.256 77.9566C239.097 77.677 239.798 77.3975 240.78 77.118C241.762 76.9782 242.883 76.8384 244.146 77.5373C244.706 77.9566 245.127 78.5157 245.267 79.2145C245.408 79.9134 245.267 80.6123 245.127 81.0316C244.706 82.01 244.146 82.7089 243.444 83.268C242.322 84.2464 241.201 85.2248 239.939 85.9236C237.555 87.6009 235.311 88.8589 233.067 89.8373C228.72 91.7941 224.793 92.493 222.269 92.9123C219.464 93.6111 218.062 93.4714 217.922 93.1918Z" fill="black"/>
<path d="M381.856 212.698C381.856 212.698 385.922 213.396 388.727 214.515C391.532 215.633 395.739 215.353 395.598 214.095C395.178 210.741 374.844 205.849 374.844 205.849C374.844 205.849 372.74 205.429 378.49 202.913C384.38 200.258 382.557 198.021 382.557 198.021C382.557 198.021 373.161 199.699 369.094 199.838C367.552 199.838 356.754 199.699 356.754 199.699C349.882 199 342.59 198.161 338.243 197.602C335.298 205.569 331.933 213.396 328.427 221.224C341.749 222.621 352.407 222.901 358.296 222.621C370.497 222.901 381.856 229.191 383.819 227.933C385.782 226.675 375.265 221.363 375.265 221.363C379.191 221.783 392.654 229.191 393.074 226.395C393.355 224.718 380.033 217.45 380.033 217.45C380.033 217.45 385.502 218.987 392.093 221.923C396.861 224.019 397.141 222.342 397.141 222.342C397.422 219.127 381.856 212.698 381.856 212.698Z" fill="#CD7B77"/>
<path d="M373.02 204.451C373.161 204.451 373.02 205.709 372.039 207.386C371.057 209.063 368.954 211.02 366.009 211.719L366.149 210.741H366.289C368.954 212.278 370.636 214.654 371.197 216.332C371.899 218.149 371.899 219.407 371.758 219.407C371.618 219.407 371.338 218.288 370.496 216.611C369.655 214.934 368.112 212.837 365.728 211.579L364.606 210.88L365.869 210.601C368.533 210.042 370.496 208.225 371.618 206.827C372.6 205.569 372.88 204.451 373.02 204.451Z" fill="black"/>
<path d="M82.7383 62.3021C82.8785 64.3987 83.159 66.2158 83.5797 67.893C86.805 80.193 103.773 82.7089 110.364 71.6669C112.047 68.8714 112.748 65.5169 113.029 62.3021H82.7383Z" fill="#C5442D"/>
<path d="M86.6643 41.3362L108.541 41.476C108.541 41.476 117.235 60.0657 110.364 71.6669C103.773 82.7089 86.9447 80.193 83.5791 67.893C82.0366 62.1623 82.317 53.776 86.6643 41.3362Z" stroke="black" stroke-width="0.9771" stroke-miterlimit="10"/>
<path d="M98.0225 78.7953V111.083" stroke="black" stroke-width="0.9771" stroke-miterlimit="10"/>
<path d="M88.9072 111.083H107.558" stroke="black" stroke-width="0.9771" stroke-miterlimit="10"/>
<path d="M73.7627 116.115C77.4088 100.46 79.2318 85.085 84.1399 82.9884C89.0481 80.752 90.3102 78.6554 94.5172 76.5588C99.8461 73.9032 107.278 71.6668 107.278 72.6452C107.278 74.8816 95.7793 82.9884 95.7793 82.9884C95.7793 82.9884 114.43 73.3441 110.784 78.0963C107.138 82.8486 95.7793 89.4179 95.7793 89.4179C95.7793 89.4179 111.766 83.2679 107.278 87.6009C102.791 91.9338 94.9379 96.4066 94.9379 96.4066C94.9379 96.4066 110.223 91.6543 102.37 97.2452C98.1633 100.18 97.1816 101.578 97.0414 103.395C96.4805 110.104 95.9195 115.555 95.9195 115.555L73.7627 116.115Z" fill="#CD7B77"/>
<path d="M352.546 198.161C350.443 197.323 348.9 195.366 345.955 194.527C317.067 186.42 273.034 160.562 273.034 160.562C273.034 160.562 245.549 117.932 233.348 100.46C231.385 97.5248 229.001 94.7294 225.916 93.0521C224.093 92.0737 221.709 91.5146 219.605 91.7941C187.492 109.685 177.816 92.3532 175.152 89.9771C168.14 86.2032 150.19 99.6214 136.447 111.502L100.828 136.102L99.5659 112.62C90.4507 113.878 81.4758 115.276 72.5009 116.534C67.172 134.425 62.8248 152.875 63.3858 171.604C63.6662 179.571 65.6295 188.796 72.5009 192.71C77.97 195.785 84.7012 194.807 90.8714 193.549C98.1636 191.871 104.895 189.915 111.345 187.678C119.339 185.582 130.978 179.991 136.167 178.873C134.905 184.883 133.923 190.893 132.941 196.903C131.118 210.182 130.417 224.438 136.307 236.459C136.307 236.459 193.662 232.825 220.447 233.943C230.263 234.362 237.976 241.071 246.67 236.599C252.139 223.32 250.176 209.483 247.091 196.344C253.822 203.473 261.675 209.483 270.791 213.536C281.588 218.428 293.508 220.385 305.288 222.342C315.665 224.019 326.463 225.836 336.84 225.277C343.291 224.858 343.992 224.299 347.358 223.6C349.461 223.181 351.425 223.879 353.528 223.18C354.65 215.633 356.193 206.548 358.296 199.14C356.613 198.581 354.369 198.86 352.546 198.161Z" fill="#FF8A00"/>
<path d="M219.605 91.0953C219.605 91.0953 219.325 91.7941 218.343 92.6328C217.502 93.6112 215.959 94.7293 213.996 95.8475C211.893 96.9657 209.368 97.8043 206.424 98.643C203.479 99.4816 200.253 100.18 196.747 100.6C193.242 100.879 189.876 100.74 186.931 99.9009C183.986 99.0623 181.602 97.6646 179.779 96.1271C177.956 94.5896 176.834 93.0521 176.273 91.9339C175.993 91.3748 175.713 90.9555 175.713 90.5362C175.572 90.2566 175.572 90.1169 175.572 89.9771C175.712 89.8373 176.694 92.6328 180.2 95.4282C182.023 96.8259 184.267 98.0839 187.212 98.7828C190.016 99.4816 193.382 99.7612 196.747 99.4816C200.113 99.2021 203.338 98.3634 206.283 97.6646C209.228 96.9657 211.752 96.1271 213.716 95.1487C217.782 93.3316 219.465 90.9555 219.605 91.0953Z" fill="white"/>
<path d="M348.62 221.084C348.479 221.084 347.918 220.665 347.778 218.428C347.638 216.192 347.638 213.117 348.059 209.623C348.479 206.268 349.321 203.193 350.022 201.096C350.723 199 351.424 197.742 351.565 197.742C351.845 197.882 349.882 203.053 349.04 209.762C348.199 216.471 348.9 221.084 348.62 221.084Z" fill="white"/>
<path d="M248.914 229.331C248.914 229.47 247.371 228.771 244.567 228.073C241.762 227.234 237.555 226.255 232.367 225.836C227.178 225.277 220.867 225.137 213.996 225.137C206.984 225.277 199.412 225.417 191.278 224.998C183.285 224.718 175.572 224.299 168.701 224.299C161.689 224.299 155.519 224.858 150.33 225.696C145.141 226.535 141.075 227.793 138.27 228.632C136.868 229.051 135.746 229.47 135.045 229.75C134.344 230.029 133.923 230.169 133.923 230.169C133.923 230.169 134.203 229.89 134.904 229.61C135.606 229.33 136.587 228.771 137.99 228.212C140.794 227.094 144.861 225.836 150.05 224.858C155.238 223.879 161.549 223.32 168.56 223.32C175.572 223.18 183.145 223.6 191.278 224.019C199.271 224.438 206.984 224.159 213.856 224.159C220.867 224.159 227.178 224.299 232.367 224.998C237.555 225.696 241.762 226.675 244.567 227.653C245.969 228.073 247.091 228.492 247.792 228.771C248.634 229.191 248.914 229.331 248.914 229.331Z" fill="white"/>
<path d="M143.74 236.738C143.459 236.878 142.337 234.921 141.075 232.545C139.813 230.169 138.972 228.073 139.252 227.933C139.533 227.793 140.655 229.75 141.917 232.126C143.179 234.502 144.02 236.599 143.74 236.738Z" fill="white"/>
<path d="M152.854 236.599C152.574 236.599 151.873 234.223 151.312 231.008C150.891 227.793 150.891 225.277 151.031 225.137C151.312 225.137 151.732 227.653 152.153 230.868C152.854 234.083 153.135 236.599 152.854 236.599Z" fill="white"/>
<path d="M163.652 235.9C163.372 235.9 163.091 233.104 162.811 229.61C162.671 226.116 162.671 223.32 162.951 223.32C163.232 223.32 163.512 226.116 163.793 229.61C164.073 233.104 163.933 235.9 163.652 235.9Z" fill="white"/>
<path d="M173.608 234.782C173.328 234.782 172.907 232.545 172.907 229.75C172.907 226.954 173.188 224.718 173.468 224.718C173.749 224.718 173.889 226.954 173.889 229.75C173.889 232.545 173.889 234.782 173.608 234.782Z" fill="white"/>
<path d="M186.791 234.502C186.51 234.502 186.09 232.266 185.949 229.331C185.809 226.395 186.09 224.159 186.37 224.159C186.651 224.159 186.791 226.535 186.931 229.331C187.071 232.126 187.071 234.502 186.791 234.502Z" fill="white"/>
<path d="M197.729 234.223C197.448 234.223 197.168 232.266 197.028 229.89C196.887 227.513 197.028 225.557 197.308 225.417C197.589 225.417 197.869 227.374 198.009 229.75C198.15 232.266 198.009 234.223 197.729 234.223Z" fill="white"/>
<path d="M210.77 234.502C210.49 234.502 210.35 232.406 210.35 229.75C210.35 227.094 210.209 224.998 210.49 224.998C210.77 224.998 211.191 227.094 211.331 229.75C211.331 232.406 211.051 234.502 210.77 234.502Z" fill="white"/>
<path d="M225.636 234.502C225.355 234.502 225.355 232.266 225.495 229.75C225.636 227.094 226.056 224.998 226.337 224.998C226.617 224.998 226.617 227.234 226.477 229.75C226.337 232.406 225.916 234.502 225.636 234.502Z" fill="white"/>
<path d="M239.519 237.996C239.238 237.996 239.659 235.62 240.36 232.685C241.061 229.89 241.762 227.513 242.043 227.653C242.323 227.653 241.902 230.029 241.201 232.965C240.64 235.76 239.799 237.996 239.519 237.996Z" fill="white"/>
<path d="M135.044 185.442C134.624 185.442 135.465 175.798 137.008 163.917C138.55 152.036 140.233 142.532 140.794 142.671C141.215 142.671 140.373 152.316 138.831 164.196C137.288 175.937 135.605 185.582 135.044 185.442Z" fill="black"/>
<path d="M255.085 173.561C254.944 173.421 255.365 172.303 256.487 170.626C257.609 168.949 259.572 166.852 261.956 164.895C264.48 162.938 267.004 161.681 268.968 160.982C270.931 160.283 272.193 160.143 272.193 160.423C272.333 160.982 267.706 162.659 263.078 166.293C258.45 169.787 255.505 173.841 255.085 173.561Z" fill="black"/>
<path d="M252.561 160.423C252.561 159.863 257.048 159.724 262.377 159.724C267.846 159.584 272.193 159.724 272.333 160.143C272.333 160.562 267.986 161.401 262.517 161.541C256.908 161.541 252.561 160.842 252.561 160.423Z" fill="black"/>
<path d="M157.341 136.801L152.854 189.355L126.069 238.136H252.84L236.152 193.269L229.982 133.726L157.341 136.801Z" fill="#FCFAF1"/>
<path d="M159.725 139.457C159.304 139.317 159.725 136.242 160.566 131.35C161.407 126.458 162.529 119.609 164.773 112.061C166.877 104.653 170.102 98.0839 173.327 94.0305C176.553 89.9771 179.357 88.2998 179.638 88.5794C179.918 88.9987 177.674 91.0953 175.01 95.1487C172.346 99.2021 169.541 105.492 167.578 112.76C165.474 120.028 164.072 126.877 162.67 131.629C161.127 136.521 160.145 139.596 159.725 139.457Z" fill="black"/>
<path d="M227.177 137.919C226.757 137.64 228.159 135.124 228.58 130.791C228.86 128.554 228.72 125.899 228.439 122.964C228.159 120.028 227.598 116.674 226.897 113.319C225.635 106.47 223.952 100.46 222.129 96.4067C220.306 92.2135 218.623 89.9771 219.044 89.6976C219.324 89.418 221.568 91.3749 223.952 95.5681C226.336 99.6215 228.439 105.911 229.701 112.9C230.403 116.394 230.823 119.749 231.104 122.824C231.244 125.899 231.104 128.834 230.683 131.21C230.262 133.586 229.421 135.403 228.72 136.521C227.878 137.5 227.317 137.919 227.177 137.919Z" fill="black"/>
<path d="M191.138 188.796C191.138 188.796 191.558 189.076 192.26 189.495C192.54 189.775 192.961 190.054 193.522 190.474C194.083 190.753 194.644 191.173 195.345 191.312C196.747 191.452 198.71 190.613 200.674 189.635C201.655 189.076 202.777 188.517 204.039 187.958C204.6 187.678 205.301 187.399 206.002 187.119C206.423 186.979 206.704 186.979 207.124 186.84H207.685H208.246C214.136 186.84 221.148 186.7 228.86 186.56C232.787 186.56 236.854 186.56 241.061 186.56C243.164 186.56 245.268 186.56 247.511 186.56H249.194C249.755 186.56 250.176 186.56 250.597 186.42C251.438 186.141 252.279 185.721 252.7 185.023C253.121 184.324 253.121 183.625 252.7 182.926C252.279 182.227 251.438 181.808 250.597 181.528C250.176 181.388 249.755 181.388 249.194 181.388H247.511C246.39 181.388 245.408 181.388 244.286 181.388C240.079 181.388 236.012 181.388 232.086 181.388C224.373 181.249 217.361 181.249 211.472 181.109C205.582 180.969 200.814 180.969 197.588 180.829C194.363 180.69 192.54 180.55 192.54 180.41C192.54 180.27 194.363 180.131 197.588 179.991C200.814 179.851 205.582 179.711 211.472 179.711C217.361 179.711 224.373 179.571 232.086 179.432C236.012 179.432 240.079 179.432 244.286 179.432C245.408 179.432 246.39 179.432 247.511 179.432H249.194C249.755 179.432 250.456 179.432 251.017 179.571C252.279 179.851 253.541 180.55 254.243 181.808C255.084 183.066 255.084 184.743 254.383 186.001C253.682 187.259 252.42 187.958 251.157 188.377C250.597 188.517 249.895 188.657 249.194 188.657H247.511C245.268 188.657 243.164 188.657 241.061 188.657C236.854 188.657 232.787 188.657 228.86 188.657C221.148 188.517 214.136 188.517 208.246 188.377C206.844 188.237 205.722 188.796 204.46 189.216C203.198 189.775 202.076 190.194 201.094 190.753C198.991 191.732 197.027 192.57 195.064 192.151C194.083 191.871 193.522 191.312 193.101 191.033C192.54 190.613 192.26 190.194 191.839 189.915C191.418 189.216 191.138 188.796 191.138 188.796Z" fill="black"/>
<path d="M127.332 178.034V214.654C127.332 222.621 133.923 229.191 141.916 229.191H178.657C186.651 229.191 193.242 222.621 193.242 214.654V178.034H127.332Z" fill="#FC9F28"/>
<path d="M193.943 176.916H126.631V179.571H193.943V176.916Z" fill="#F7D3A2"/>
<path d="M214.417 228.492H122.144V237.857H214.417V228.492Z" fill="black"/>
<path d="M148.087 89.2782C148.227 89.418 147.666 90.5362 146.685 92.6328C145.843 94.7294 144.301 97.8044 144.02 101.858C143.88 103.815 144.301 106.051 145.422 108.008C146.544 109.965 148.648 111.642 150.892 113.179C153.135 114.857 155.66 116.394 157.623 119.19C158.604 120.587 159.165 122.265 159.165 124.082C159.165 125.899 158.604 127.576 157.763 129.113C155.94 132.049 153.556 134.145 151.453 136.382C149.349 138.478 147.666 140.715 146.544 143.091C144.441 147.983 144.581 153.015 145.703 156.928C146.685 160.842 148.648 163.637 150.19 165.454C150.611 165.874 150.892 166.293 151.172 166.573C151.453 166.852 151.733 167.132 152.013 167.271C152.434 167.691 152.715 167.97 152.574 167.97C152.574 167.97 152.294 167.831 151.733 167.551C151.453 167.411 151.172 167.132 150.751 166.852C150.331 166.573 150.05 166.153 149.489 165.874C147.806 164.196 145.422 161.401 144.16 157.208C142.758 153.154 142.478 147.703 144.721 142.252C145.843 139.596 147.666 136.941 149.91 134.844C152.013 132.608 154.397 130.511 155.8 127.995C156.501 126.737 156.922 125.34 156.922 123.942C156.922 122.544 156.501 121.286 155.8 120.168C154.257 117.932 151.873 116.254 149.629 114.577C147.386 112.9 145.282 111.083 143.88 108.707C142.618 106.33 142.197 103.815 142.478 101.578C142.758 99.3419 143.319 97.5248 144.02 95.9873C144.721 94.4498 145.422 93.1919 145.983 92.0737C147.246 90.2566 147.947 89.1385 148.087 89.2782Z" fill="black"/>
<path d="M38.1443 199.419L30.7119 193.549C30.7119 193.549 40.8087 187.958 63.5265 187.119C69.4163 186.84 75.4463 187.399 81.1958 188.796C87.927 190.474 95.6398 193.269 95.4996 197.183C95.4996 197.183 96.0605 199 92.4145 200.118C88.7684 201.236 91.7133 221.084 93.3961 223.879C95.0789 226.675 59.3195 233.943 59.3195 233.943L38.1443 199.419Z" fill="#D18848"/>
<path d="M30.5715 208.644C30.5715 208.644 31.9738 203.892 30.1508 202.214C28.3278 200.537 23.1392 199.419 28.7485 194.946C34.0773 190.474 51.1858 184.743 65.3493 196.484C66.7517 197.602 67.8735 199.139 68.2942 200.957C68.7149 202.494 68.4344 204.171 66.331 204.591C61.9837 205.289 63.8068 227.094 64.3677 229.889C64.9286 232.685 59.74 235.201 46.1374 235.061C30.1508 234.782 26.7852 229.61 27.2059 228.352C27.4864 227.094 30.5715 208.644 30.5715 208.644Z" fill="#FDE9BB"/>
<path d="M32.254 237.717H89.7496C98.0233 237.717 104.755 231.008 104.755 222.761H17.249C17.249 231.147 23.9802 237.717 32.254 237.717Z" fill="#E6CCC5"/>
<path d="M293.368 229.051C314.684 233.244 350.023 199.14 333.475 192.71C329.548 191.172 325.622 195.925 322.958 199.279C322.677 199.699 322.256 200.118 321.976 200.677C312.16 213.676 294.21 224.718 281.308 215.912C268.267 207.246 270.23 200.537 267.706 200.817C265.041 200.957 265.742 223.74 293.368 229.051Z" fill="#BC1015"/>
<path d="M333.475 192.43C332.634 192.151 331.652 192.011 330.811 192.011C329.969 192.011 328.988 192.291 328.286 192.99C328.146 193.129 328.006 193.269 328.006 193.549C328.006 193.828 328.286 194.108 328.567 194.387C329.548 194.946 330.811 194.946 331.792 195.645C332.774 196.344 333.335 197.462 333.896 198.58C334.597 199.699 335.578 200.537 336.841 200.957C337.682 201.236 338.804 201.096 338.944 200.258C338.944 199.978 338.944 199.699 338.804 199.279C338.103 197.183 337.401 194.807 335.719 193.269C334.877 192.57 333.755 192.011 332.774 192.291" fill="#678331"/>
<path d="M333.615 194.248C333.896 193.269 334.176 192.291 334.737 191.452C335.158 191.033 335.719 190.613 336.139 190.334C337.822 189.355 339.926 188.796 341.889 189.216C342.59 189.355 343.291 189.635 343.712 190.194C344.133 190.753 343.992 191.732 343.291 192.011C342.871 192.151 342.45 192.151 342.029 192.011C341.188 191.732 340.346 191.173 339.505 191.033C338.523 190.893 337.682 191.173 336.841 191.732C335.999 192.291 335.438 192.99 334.737 193.549C334.457 193.968 334.036 194.387 333.896 194.807" fill="#678331"/>
<path d="M298.978 194.527C301.502 195.645 304.166 196.344 306.971 196.204C308.654 196.204 310.336 195.925 311.458 194.807C313.141 193.129 313.001 190.334 312.72 187.958C314.403 187.678 316.086 188.237 317.769 188.657C319.452 189.216 321.134 189.635 322.817 189.216C324.5 188.796 326.043 187.259 325.762 185.582C325.482 183.904 323.659 182.507 324.36 180.969C324.78 179.991 325.762 179.711 326.744 179.292C330.53 177.894 334.176 176.217 337.542 174.12C339.505 172.862 341.468 171.465 342.59 169.508C343.852 167.551 344.133 164.895 342.87 162.938C341.889 161.401 339.926 160.423 337.962 160.423C335.999 160.283 334.176 160.982 332.353 161.68C328.987 163.218 326.043 165.315 323.659 168.11C321.976 170.067 319.872 172.443 317.488 171.744C315.385 171.045 314.684 168.39 314.403 166.153C313.281 165.874 312.019 166.573 311.318 167.551C310.617 168.529 310.336 169.648 309.916 170.905C309.215 173.421 308.654 175.937 307.952 178.453C307.672 179.571 307.111 180.969 305.989 181.109C304.587 181.249 303.745 179.571 302.483 179.152C301.221 178.733 299.679 179.711 299.118 180.969C298.557 182.227 298.557 183.625 298.697 185.023C298.837 188.237 298.978 191.312 299.118 194.527" fill="#19A86F"/>
<path d="M287.758 189.915C290.142 187.259 292.667 184.603 295.051 181.948C296.032 180.829 297.014 179.711 297.294 178.313C297.575 176.916 296.874 175.099 295.471 174.819C294.77 174.679 294.069 174.819 293.508 174.819C292.807 174.819 292.106 174.4 292.106 173.701C292.106 173.421 292.246 173.002 292.526 172.723C293.788 170.905 295.331 169.228 296.874 167.551C297.855 166.573 298.837 165.594 299.258 164.336C299.678 163.078 299.258 161.401 298.136 160.842C296.593 160.003 294.209 161.261 293.087 159.863C292.526 159.165 292.667 158.326 292.807 157.487C293.648 152.595 295.471 147.983 295.752 143.091C295.892 140.016 294.91 136.242 291.965 135.403C290.703 134.984 289.441 135.124 288.179 135.543C284.253 136.941 282.009 141.134 281.588 145.327C281.027 149.38 281.869 153.574 282.289 157.627C282.43 158.885 282.289 160.562 281.027 160.982C280.046 161.401 279.064 160.702 278.082 160.562C275.979 160.423 274.576 162.799 274.857 164.895C275.137 166.852 276.54 168.529 277.942 170.067C279.344 171.604 280.747 173.142 281.167 175.238C281.167 175.518 281.167 175.798 281.167 176.077C280.607 177.055 279.064 176.217 278.082 176.776C277.101 177.335 277.662 178.873 278.223 179.851C279.625 182.087 281.027 184.463 282.43 186.7C283.131 187.818 283.972 189.076 284.954 189.775C286.076 190.613 287.618 190.893 288.74 190.194" fill="#1DBA80"/>
<path d="M292.526 201.376C292.246 201.096 293.928 198.441 297.575 194.527C299.257 192.57 301.501 190.334 304.165 188.098C306.83 185.861 309.775 183.345 313 181.109C319.451 176.357 325.621 172.723 330.249 170.207C334.736 167.691 337.681 166.293 337.962 166.573C338.102 166.852 335.578 168.809 331.371 171.744C327.164 174.679 321.134 178.593 314.823 183.205C311.598 185.582 308.653 187.818 306.129 189.915C303.464 192.151 301.221 194.108 299.257 195.785C295.05 199.419 292.947 201.655 292.526 201.376Z" fill="black"/>
<path d="M289.721 201.096C289.02 201.236 286.075 187.538 285.655 170.486C285.094 153.294 287.337 139.596 288.038 139.596C288.88 139.736 287.898 153.434 288.459 170.346C288.74 187.399 290.563 201.096 289.721 201.096Z" fill="black"/>
<path d="M274.717 236.319C276.54 234.083 279.204 232.685 282.149 232.406C284.954 232.126 287.758 232.965 290.563 232.965C296.874 232.965 302.904 228.492 305.288 222.621C307.672 216.751 306.97 209.902 304.166 204.171C302.623 201.096 300.52 198.161 297.575 196.204C290.703 191.592 281.168 193.129 274.156 197.462C270.79 199.559 267.565 202.354 266.163 206.128C263.498 212.837 266.724 220.525 271.211 226.256C273.455 229.051 276.259 232.266 275.558 235.9" fill="#BE275D"/>
<g opacity="0.3">
<g opacity="0.3">
<path opacity="0.3" d="M294.49 211.16C292.247 211.02 290.283 210.741 289.021 209.622C287.759 208.504 287.339 206.827 288.18 205.569C289.021 204.311 290.704 203.752 292.247 204.451C293.789 205.01 295.192 206.548 296.313 208.504C296.874 209.483 297.435 210.321 297.856 211.16C297.856 211.3 297.996 211.3 297.996 211.44C297.996 211.579 298.137 211.579 298.137 211.579H297.996C297.856 211.579 297.716 211.579 297.716 211.579C296.594 211.16 295.472 211.16 294.49 211.16Z" fill="#4E162D"/>
</g>
<g opacity="0.3">
<path opacity="0.3" d="M291.125 218.428C289.022 218.149 287.058 217.59 285.796 216.611C284.534 215.633 284.114 214.235 284.674 213.117C285.235 211.999 286.778 211.719 288.18 212.278C289.723 212.837 291.125 214.235 292.528 215.912C293.229 216.751 293.79 217.59 294.491 218.288C294.631 218.428 294.771 218.568 294.911 218.708L295.052 218.848C295.052 218.848 295.052 218.848 294.911 218.848C294.771 218.848 294.491 218.848 294.351 218.708C293.229 218.708 292.107 218.568 291.125 218.428Z" fill="#4E162D"/>
</g>
<g opacity="0.3">
<path opacity="0.3" d="M294.631 221.363C291.545 218.288 289.582 215.213 290.003 214.794C290.564 214.235 293.368 216.471 296.454 219.546C299.539 222.621 301.502 225.696 301.081 226.116C300.52 226.535 297.575 224.438 294.631 221.363Z" fill="#4E162D"/>
</g>
<g opacity="0.3">
<path opacity="0.3" d="M289.162 224.718C285.235 222.761 282.29 220.665 282.711 219.966C283.132 219.267 286.497 220.105 290.564 222.062C294.491 224.019 297.435 226.116 297.015 226.815C296.594 227.653 293.088 226.675 289.162 224.718Z" fill="#4E162D"/>
</g>
</g>
<path d="M269.388 224.997C261.255 230.169 254.103 229.75 245.969 224.299C237.836 218.847 235.452 212.558 235.031 209.343C234.47 206.268 235.732 202.494 234.891 201.516C234.05 200.537 232.787 198.301 234.05 198.021C235.312 197.742 236.574 198.72 238.116 197.882C239.659 196.903 251.859 191.732 261.535 198.441C271.211 205.01 272.894 210.042 273.876 214.794C274.857 219.546 277.802 220.665 277.382 221.783C277.101 223.041 275.559 223.041 274.016 223.32C272.614 223.74 269.388 224.997 269.388 224.997Z" fill="#FAB42D"/>
<path d="M246.25 196.903C246.671 197.322 246.531 198.161 246.11 199C245.689 199.838 245.129 200.677 244.568 200.537C244.007 200.537 243.726 199.419 244.147 198.161C244.848 197.183 245.83 196.624 246.25 196.903Z" fill="#2E4C55"/>
<path d="M252.14 204.171C252.561 204.451 252.42 205.429 252.28 206.268C252 207.246 251.579 207.945 251.018 208.085C250.457 208.085 249.896 207.107 250.317 205.709C250.597 204.451 251.719 203.892 252.14 204.171Z" fill="#2E4C55"/>
<path d="M259.713 201.935C260.274 202.075 260.414 203.053 259.993 204.171C259.713 205.29 259.012 205.988 258.451 205.849C257.89 205.709 257.75 204.73 258.17 203.612C258.451 202.494 259.152 201.795 259.713 201.935Z" fill="#2E4C55"/>
<path d="M265.883 206.128C266.304 206.408 266.444 207.107 266.164 207.945C265.883 208.644 265.322 209.203 264.901 209.203C264.34 209.203 264.06 208.225 264.34 207.386C264.621 206.408 265.322 205.849 265.883 206.128Z" fill="#2E4C55"/>
<path d="M259.713 211.439C260.274 211.579 260.414 212.558 259.993 213.396C259.713 214.235 259.012 214.794 258.451 214.654C257.89 214.515 257.75 213.536 258.17 212.697C258.451 211.859 259.152 211.3 259.713 211.439Z" fill="#2E4C55"/>
<path d="M234.891 201.516C235.171 201.376 235.452 201.376 235.732 201.516C237.555 202.774 245.829 209.063 244.427 219.546C243.585 226.116 243.305 229.47 243.165 231.148C243.165 231.707 242.463 231.986 241.903 231.567C234.891 225.976 229.702 205.15 234.891 201.516Z" fill="#46671E"/>
<path d="M246.951 237.717H307.532C316.226 237.717 323.238 230.728 323.238 222.062H231.104C231.104 230.728 238.256 237.717 246.951 237.717Z" fill="#7E4C38"/>
<path d="M358.857 237.857H0V246.662H358.857V237.857Z" fill="#CC2C15"/>
</g>
<defs>
<clipPath id="clip0">
<rect width="397" height="246" fill="white" transform="translate(0 0.662354)"/>
</clipPath>
</defs>
</svg>
