<svg width="24" height="24" viewBox="0 0 24 24" fill="none" xmlns="http://www.w3.org/2000/svg">
<g clip-path="url(#clip0_448_1185)">
<path d="M11.0001 19C10.1581 19 9.31509 18.822 8.49609 18.505" stroke="#9C98A6" stroke-width="1.5" stroke-linecap="round" stroke-linejoin="round"/>
<path d="M19.882 12.468C17.99 15.967 14.495 19 11 19" stroke="#9C98A6" stroke-width="1.5" stroke-linecap="round" stroke-linejoin="round"/>
<path d="M18.0791 8.92102C18.7701 9.73002 19.3841 10.612 19.8821 11.533C20.0391 11.824 20.0391 12.177 19.8821 12.468" stroke="#9C98A6" stroke-width="1.5" stroke-linecap="round" stroke-linejoin="round"/>
<path d="M4 19L18 5" stroke="#9C98A6" stroke-width="1.5" stroke-linecap="round" stroke-linejoin="round"/>
<path d="M8.77309 14.227C7.54309 12.997 7.54309 11.002 8.77309 9.77199C10.0031 8.54199 11.9981 8.54199 13.2281 9.77199" stroke="#9C98A6" stroke-width="1.5" stroke-linecap="round" stroke-linejoin="round"/>
<path d="M16.0438 6.956C14.4968 5.759 12.7478 5 10.9998 5C7.50475 5 4.00975 8.033 2.11775 11.533C1.96075 11.824 1.96075 12.177 2.11775 12.468C3.06375 14.217 4.40975 15.849 5.95575 17.045" stroke="#9C98A6" stroke-width="1.5" stroke-linecap="round" stroke-linejoin="round"/>
</g>
<defs>
<clipPath id="clip0_448_1185">
<rect width="24" height="24" fill="white"/>
</clipPath>
</defs>
</svg>
