<svg width="105" height="90" viewBox="0 0 105 90" fill="none" xmlns="http://www.w3.org/2000/svg">
<rect x="1.59668" y="2.45192" width="100.975" height="85.8173" rx="5.5" stroke="#BFC5C8" stroke-width="3"/>
<ellipse cx="11.5641" cy="9.42744" rx="1.20957" ry="1.36888" fill="#DCE2E5"/>
<ellipse cx="16.402" cy="9.42744" rx="1.20957" ry="1.36888" fill="#DCE2E5"/>
<ellipse cx="21.2408" cy="9.42744" rx="1.20957" ry="1.36888" fill="#DCE2E5"/>
<mask id="path-5-inside-1_1330_1596" fill="white">
<rect x="10" y="26" width="46" height="38" rx="1"/>
</mask>
<rect x="10" y="26" width="46" height="38" rx="1" stroke="#BFC5C8" stroke-width="4" mask="url(#path-5-inside-1_1330_1596)"/>
<mask id="path-6-inside-2_1330_1596" fill="white">
<rect x="59.7998" y="26.3349" width="35.6006" height="11.1915" rx="1"/>
</mask>
<rect x="59.7998" y="26.3349" width="35.6006" height="11.1915" rx="1" stroke="#BFC5C8" stroke-width="4" mask="url(#path-6-inside-2_1330_1596)"/>
<mask id="path-7-inside-3_1330_1596" fill="white">
<rect x="59.7998" y="39.7647" width="35.6006" height="2.23831" rx="1"/>
</mask>
<rect x="59.7998" y="39.7647" width="35.6006" height="2.23831" rx="1" stroke="#BFC5C8" stroke-width="2.23831" mask="url(#path-7-inside-3_1330_1596)"/>
<mask id="path-8-inside-4_1330_1596" fill="white">
<rect x="59.7998" y="66.6245" width="35.6006" height="2.23831" rx="1"/>
</mask>
<rect x="59.7998" y="66.6245" width="35.6006" height="2.23831" rx="1" fill="#DCE2E5" stroke="#BFC5C8" stroke-width="2.23831" mask="url(#path-8-inside-4_1330_1596)"/>
<rect x="10.5" y="67.5" width="45" height="1" rx="0.5" fill="#DCE2E5" stroke="#BFC5C8"/>
<mask id="path-10-inside-5_1330_1596" fill="white">
<rect x="59.7998" y="44.2413" width="35.6006" height="2.23831" rx="1"/>
</mask>
<rect x="59.7998" y="44.2413" width="35.6006" height="2.23831" rx="1" stroke="#BFC5C8" stroke-width="2.23831" mask="url(#path-10-inside-5_1330_1596)"/>
<mask id="path-11-inside-6_1330_1596" fill="white">
<rect x="59.7998" y="71.1011" width="35.6006" height="2.23831" rx="1"/>
</mask>
<rect x="59.7998" y="71.1011" width="35.6006" height="2.23831" rx="1" fill="#DCE2E5" stroke="#BFC5C8" stroke-width="2.23831" mask="url(#path-11-inside-6_1330_1596)"/>
<rect x="10.5" y="71.5" width="45" height="1" rx="0.5" fill="#DCE2E5" stroke="#BFC5C8"/>
<mask id="path-13-inside-7_1330_1596" fill="white">
<rect x="59.7998" y="48.7181" width="27.6893" height="2.23831" rx="1"/>
</mask>
<rect x="59.7998" y="48.7181" width="27.6893" height="2.23831" rx="1" fill="#DCE2E5" stroke="#BFC5C8" stroke-width="2.23831" mask="url(#path-13-inside-7_1330_1596)"/>
<mask id="path-14-inside-8_1330_1596" fill="white">
<rect x="59.7998" y="75.5777" width="27.6893" height="2.23831" rx="1"/>
</mask>
<rect x="59.7998" y="75.5777" width="27.6893" height="2.23831" rx="1" fill="#DCE2E5" stroke="#BFC5C8" stroke-width="2.23831" mask="url(#path-14-inside-8_1330_1596)"/>
<rect x="10.5" y="76.5" width="35" height="1" rx="0.5" fill="#DCE2E5" stroke="#BFC5C8"/>
<mask id="path-16-inside-9_1330_1596" fill="white">
<rect x="59.7998" y="53.1947" width="35.6006" height="11.1915" rx="1"/>
</mask>
<rect x="59.7998" y="53.1947" width="35.6006" height="11.1915" rx="1" stroke="#BFC5C8" stroke-width="4" mask="url(#path-16-inside-9_1330_1596)"/>
<rect x="3.09668" y="14.903" width="97.9751" height="1.36888" fill="#BFC5C8"/>
</svg>
