<svg width="64" height="64" viewBox="0 0 64 64" fill="none" xmlns="http://www.w3.org/2000/svg">
<path d="M32 57C18.1929 57 7 45.8071 7 32C7 18.1929 18.1929 7 32 7C45.8071 7 57 18.1929 57 32C57 38.5636 54.4706 44.5364 50.3333 48.9969" stroke="#BFC5C8" stroke-width="2"/>
<path d="M29.2031 37.5312C29.2031 36.7708 29.25 36.1354 29.3438 35.625C29.4375 35.1042 29.5885 34.6458 29.7969 34.25C30.0156 33.8542 30.3229 33.4635 30.7188 33.0781C31.1146 32.6927 31.625 32.2552 32.25 31.7656C32.7917 31.3281 33.2396 30.875 33.5938 30.4062C33.9479 29.9375 34.2188 29.4531 34.4062 28.9531C34.5938 28.4531 34.6875 27.9375 34.6875 27.4062C34.6875 26.5104 34.4375 25.8125 33.9375 25.3125C33.4479 24.8021 32.7552 24.5469 31.8594 24.5469C31.1094 24.5469 30.4635 24.7552 29.9219 25.1719C29.3906 25.5885 29.1198 26.2135 29.1094 27.0469H24.6875L24.6406 26.9531C24.6198 25.6823 24.9115 24.599 25.5156 23.7031C26.1302 22.7969 26.9792 22.1094 28.0625 21.6406C29.1562 21.1615 30.4167 20.9219 31.8438 20.9219C34.1667 20.9219 35.9792 21.4948 37.2812 22.6406C38.5938 23.776 39.25 25.3229 39.25 27.2812C39.25 28.1875 39.0729 29.026 38.7188 29.7969C38.375 30.5677 37.8958 31.2969 37.2812 31.9844C36.6771 32.6719 35.974 33.3542 35.1719 34.0312C34.776 34.3646 34.474 34.6875 34.2656 35C34.0677 35.3021 33.9323 35.6562 33.8594 36.0625C33.7969 36.4583 33.7656 36.9479 33.7656 37.5312H29.2031ZM29.2031 44V40H33.7656V44H29.2031Z" fill="#BFC5C8"/>
<path d="M32 2C48.5685 2 62 15.4315 62 32C62 48.5685 48.5685 62 32 62C15.4315 62 2 48.5685 2 32C2 23.9073 5.20439 16.563 10.4136 11.1667" stroke="#BFC5C8" stroke-width="3"/>
</svg>
