<svg width="104" height="90" viewBox="0 0 104 90" fill="none" xmlns="http://www.w3.org/2000/svg">
<rect x="1.5" y="2.45192" width="100.975" height="85.8173" rx="5.5" stroke="#BFC5C8" stroke-width="3"/>
<ellipse cx="11.4674" cy="9.42744" rx="1.20957" ry="1.36888" fill="#DCE2E5"/>
<ellipse cx="16.3053" cy="9.42744" rx="1.20957" ry="1.36888" fill="#DCE2E5"/>
<ellipse cx="21.1441" cy="9.42744" rx="1.20957" ry="1.36888" fill="#DCE2E5"/>
<mask id="path-5-inside-1_1330_1772" fill="white">
<rect x="10" y="26" width="44" height="51" rx="1"/>
</mask>
<rect x="10" y="26" width="44" height="51" rx="1" stroke="#BFC5C8" stroke-width="4" mask="url(#path-5-inside-1_1330_1772)"/>
<mask id="path-6-inside-2_1330_1772" fill="white">
<rect x="59.7031" y="26.3349" width="35.6006" height="11.1915" rx="1"/>
</mask>
<rect x="59.7031" y="26.3349" width="35.6006" height="11.1915" rx="1" stroke="#BFC5C8" stroke-width="4" mask="url(#path-6-inside-2_1330_1772)"/>
<mask id="path-7-inside-3_1330_1772" fill="white">
<rect x="59.7031" y="39.7647" width="35.6006" height="2.23831" rx="1"/>
</mask>
<rect x="59.7031" y="39.7647" width="35.6006" height="2.23831" rx="1" stroke="#BFC5C8" stroke-width="2.23831" mask="url(#path-7-inside-3_1330_1772)"/>
<mask id="path-8-inside-4_1330_1772" fill="white">
<rect x="59.7031" y="65.6245" width="35.6006" height="2.23831" rx="1"/>
</mask>
<rect x="59.7031" y="65.6245" width="35.6006" height="2.23831" rx="1" fill="#DCE2E5" stroke="#BFC5C8" stroke-width="2.23831" mask="url(#path-8-inside-4_1330_1772)"/>
<mask id="path-9-inside-5_1330_1772" fill="white">
<rect x="59.7031" y="44.2413" width="35.6006" height="2.23831" rx="1"/>
</mask>
<rect x="59.7031" y="44.2413" width="35.6006" height="2.23831" rx="1" stroke="#BFC5C8" stroke-width="2.23831" mask="url(#path-9-inside-5_1330_1772)"/>
<mask id="path-10-inside-6_1330_1772" fill="white">
<rect x="59.7031" y="70.1011" width="35.6006" height="2.23831" rx="1"/>
</mask>
<rect x="59.7031" y="70.1011" width="35.6006" height="2.23831" rx="1" fill="#DCE2E5" stroke="#BFC5C8" stroke-width="2.23831" mask="url(#path-10-inside-6_1330_1772)"/>
<rect x="60.4033" y="49.5" width="34" height="1" rx="0.5" fill="#DCE2E5" stroke="#BFC5C8"/>
<rect x="60.4033" y="53.5" width="34" height="1" rx="0.5" fill="#DCE2E5" stroke="#BFC5C8"/>
<rect x="60.4033" y="57.5" width="34" height="1" rx="0.5" fill="#DCE2E5" stroke="#BFC5C8"/>
<rect x="60.4033" y="61.5" width="34" height="1" rx="0.5" fill="#DCE2E5" stroke="#BFC5C8"/>
<mask id="path-15-inside-7_1330_1772" fill="white">
<rect x="59.7031" y="74.5777" width="27.6893" height="2.23831" rx="1"/>
</mask>
<rect x="59.7031" y="74.5777" width="27.6893" height="2.23831" rx="1" fill="#DCE2E5" stroke="#BFC5C8" stroke-width="2.23831" mask="url(#path-15-inside-7_1330_1772)"/>
<rect x="3" y="14.903" width="97.9751" height="1.36888" fill="#BFC5C8"/>
</svg>
