<svg width="24" height="24" viewBox="0 0 24 24" fill="none" xmlns="http://www.w3.org/2000/svg">
<path d="M12 23.5662C18.6274 23.5662 24 18.2907 24 11.7831C24 5.27547 18.6274 0 12 0C5.37258 0 0 5.27547 0 11.7831C0 18.2907 5.37258 23.5662 12 23.5662Z" fill="white"/>
<path d="M16.1803 15.3748L16.7378 11.8066H13.2469V9.49178C13.2224 9.22524 13.2593 8.9567 13.3549 8.70607C13.4505 8.45545 13.6023 8.22915 13.799 8.04397C13.9958 7.85878 14.2325 7.71945 14.4916 7.63631C14.7506 7.55316 15.0254 7.52832 15.2956 7.56364H16.8807V4.52575C15.9515 4.37836 15.0127 4.29781 14.0716 4.28473C11.2003 4.28473 9.32286 5.99863 9.32286 9.08687V11.8066H6.13086V15.3748H9.32286V24H13.2501V15.3748H16.1803Z" fill="#1877F2"/>
</svg>
