<svg width="127" height="64" viewBox="0 0 127 64" fill="none" xmlns="http://www.w3.org/2000/svg">
<g id="Frame 55">
<g id="Group 54">
<path id="Vector" fill-rule="evenodd" clip-rule="evenodd" d="M98.6468 0C91.935 0 85.9141 2.9611 81.8179 7.69885C84.8283 11.795 86.605 16.8783 86.605 22.3563C86.605 27.8343 84.8283 32.8682 81.8179 37.0137C85.5192 41.258 90.7999 44.1204 96.7221 44.6139C96.7714 42.8866 96.7714 41.8008 96.7714 41.8008C96.9195 37.0631 97.0182 33.263 96.9195 31.9799C96.9195 31.7824 96.8701 31.4863 96.4753 31.2396C93.5142 29.2162 91.4414 25.8109 91.4414 19.9874C91.4908 13.4236 95.3896 8.09367 98.6961 8.09367C102.003 8.09367 105.852 13.473 105.803 20.0368C105.753 25.8603 103.681 29.2162 100.67 31.1902C100.275 31.437 100.226 31.7331 100.226 31.9305C100.177 32.4734 100.226 37.9514 100.325 44.5645C111.873 43.6762 120.954 34.0526 120.954 22.3069C120.954 9.96903 110.985 0 98.6468 0Z" fill="#322020"/>
<path id="Vector_2" fill-rule="evenodd" clip-rule="evenodd" d="M61.7815 0C49.4436 0 39.4746 9.96903 39.4746 22.3069C39.4746 33.9539 48.3579 43.4788 59.7088 44.5152C59.7581 40.7151 59.8075 36.8163 59.8568 33.5098C56.649 32.424 55.5632 27.785 55.8593 22.8498C56.2048 16.6315 58.5737 8.43913 60.3997 5.57673C61.6335 3.65202 63.114 4.6884 63.114 5.92219C63.114 6.85988 62.8179 29.9071 62.8673 33.4604C62.9166 36.767 62.966 40.6657 63.0647 44.5152C74.761 43.8242 84.0391 34.102 84.0391 22.2576C84.0885 9.96903 74.1195 0 61.7815 0Z" fill="#322020"/>
<path id="Vector_3" fill-rule="evenodd" clip-rule="evenodd" d="M42.0404 7.30404C37.9442 2.81304 32.0714 0 25.5569 0C13.219 0 3.25 9.96903 3.25 22.3069C3.25 34.0033 12.232 43.5775 23.6816 44.5645C23.7309 40.2216 23.7803 36.3721 23.8296 33.7565C22.2504 32.9669 21.1646 31.7331 20.4737 30.2525C19.2399 27.5876 19.3386 24.7745 19.6841 21.9121C19.9308 19.5432 21.3127 5.92219 21.3127 5.92219C21.3127 5.67544 21.8062 5.67544 21.8062 5.92219L21.9049 21.9615C21.9049 22.8004 23.04 22.8004 23.04 21.9615L23.9777 5.92219C23.9777 5.67544 24.4712 5.67544 24.4712 5.92219L24.9647 21.9615C24.9647 22.4056 25.2608 22.603 25.5569 22.603C25.853 22.603 26.1492 22.4056 26.1492 21.9615L26.6427 5.92219C26.6427 5.67544 27.1362 5.67544 27.1362 5.92219L28.1726 21.9615C28.1726 22.8004 29.3077 22.8004 29.3077 21.9615L29.357 5.92219C29.357 5.67544 29.8505 5.67544 29.8505 5.92219C29.8505 5.92219 31.2324 19.5926 31.4791 21.9121C31.7752 24.7745 31.9233 27.5876 30.6895 30.2525C29.9986 31.7331 28.9128 32.9669 27.3336 33.7565C27.3829 36.3721 27.4323 40.2216 27.4816 44.5645C33.2558 44.071 38.3884 41.406 42.0897 37.3592C38.9312 33.1643 37.0065 27.9824 37.0065 22.3069C36.9572 16.6808 38.8325 11.4496 42.0404 7.30404Z" fill="#322020"/>
<g id="Um nome legal">
<path d="M6.20269 60.3912C5.26 60.3912 4.4243 60.2206 3.69559 59.8794C2.96688 59.5324 2.39722 59.035 1.9866 58.3873C1.58176 57.7395 1.37934 56.9559 1.37934 56.0363V49.183L0 48.9228V47.5781H4.93613V48.9228L3.55679 49.183V56.0363C3.55679 56.6204 3.66667 57.112 3.88644 57.5111C4.10621 57.9044 4.41562 58.1993 4.81467 58.396C5.21373 58.5926 5.67929 58.6909 6.21136 58.6909C6.76079 58.6909 7.23503 58.5926 7.63408 58.396C8.03892 58.1993 8.35122 57.9044 8.57099 57.5111C8.79654 57.1178 8.90932 56.6262 8.90932 56.0363V49.183L7.52998 48.9228V47.5781H12.4661V48.9228L11.0954 49.183V56.0363C11.0954 56.9675 10.8901 57.7569 10.4795 58.4046C10.0747 59.0524 9.50501 59.5468 8.77052 59.8881C8.03603 60.2235 7.18008 60.3912 6.20269 60.3912Z" fill="#322020"/>
<path d="M13.4551 60.209V58.8731L14.765 58.6128V52.4275L13.3857 52.1672V50.8226H16.7689L16.8731 52.0545C17.1796 51.6091 17.5613 51.265 18.0182 51.0221C18.4808 50.7734 19.0158 50.6491 19.6231 50.6491C20.2361 50.6491 20.7595 50.7879 21.1932 51.0655C21.6328 51.3373 21.9653 51.7508 22.1909 52.306C22.48 51.7913 22.8589 51.3865 23.3273 51.0915C23.8016 50.7966 24.3568 50.6491 24.9929 50.6491C25.9356 50.6491 26.6759 50.9701 27.2138 51.612C27.7574 52.254 28.0292 53.2256 28.0292 54.5269V58.6128L29.3392 58.8731V60.209H24.6112V58.8731L25.8431 58.6128V54.5182C25.8431 53.7259 25.7101 53.1707 25.444 52.8526C25.178 52.5345 24.7876 52.3754 24.2729 52.3754C23.7929 52.3754 23.3967 52.5287 23.0844 52.8352C22.7779 53.1417 22.5784 53.5321 22.4858 54.0064V58.6128L23.6743 58.8731V60.209H19.1199V58.8731L20.3084 58.6128V54.5182C20.3084 53.7548 20.1725 53.2082 19.9007 52.8786C19.6288 52.5432 19.2356 52.3754 18.7208 52.3754C18.2929 52.3754 17.9314 52.4622 17.6365 52.6357C17.3473 52.8092 17.116 53.055 16.9425 53.3731V58.6128L18.1656 58.8731V60.209H13.4551Z" fill="#322020"/>
<path d="M34.6917 60.209V58.8731L35.993 58.6128V52.4275L34.6223 52.1672V50.8226H38.0056L38.1183 52.1846C38.4306 51.6988 38.8181 51.3229 39.2808 51.0568C39.7493 50.785 40.2784 50.6491 40.8684 50.6491C41.8342 50.6491 42.586 50.9469 43.1239 51.5426C43.6617 52.1325 43.9307 53.0579 43.9307 54.3187V58.6128L45.2319 58.8731V60.209H40.5213V58.8731L41.7445 58.6128V54.336C41.7445 53.6247 41.6028 53.1215 41.3195 52.8265C41.0361 52.5258 40.6139 52.3754 40.0529 52.3754C39.6307 52.3754 39.2606 52.4709 38.9425 52.6617C38.6302 52.8468 38.3757 53.107 38.1791 53.4425V58.6128L39.3676 58.8731V60.209H34.6917Z" fill="#322020"/>
<path d="M50.489 60.3912C49.5868 60.3912 48.8118 60.1888 48.1641 59.784C47.5164 59.3791 47.019 58.8181 46.672 58.101C46.325 57.3781 46.1515 56.5482 46.1515 55.6112V55.4291C46.1515 54.4979 46.325 53.6738 46.672 52.9567C47.019 52.2395 47.5164 51.6756 48.1641 51.265C48.8118 50.8544 49.581 50.6491 50.4717 50.6491C51.3739 50.6491 52.1489 50.8544 52.7966 51.265C53.4443 51.6699 53.9417 52.2309 54.2887 52.948C54.6357 53.6651 54.8092 54.4922 54.8092 55.4291V55.6112C54.8092 56.5482 54.6357 57.3781 54.2887 58.101C53.9417 58.8181 53.4443 59.3791 52.7966 59.784C52.1546 60.1888 51.3855 60.3912 50.489 60.3912ZM50.489 58.7083C50.9748 58.7083 51.3739 58.5781 51.6862 58.3179C52.0043 58.0518 52.2414 57.6875 52.3975 57.2248C52.5537 56.7564 52.6318 56.2185 52.6318 55.6112V55.4291C52.6318 54.8276 52.5537 54.2955 52.3975 53.8329C52.2414 53.3702 52.0043 53.0058 51.6862 52.7398C51.3681 52.4738 50.9633 52.3407 50.4717 52.3407C49.9917 52.3407 49.5926 52.4738 49.2745 52.7398C48.9564 53.0058 48.7193 53.3702 48.5632 53.8329C48.4128 54.2955 48.3376 54.8276 48.3376 55.4291V55.6112C48.3376 56.2185 48.4128 56.7564 48.5632 57.2248C48.7193 57.6875 48.9564 58.0518 49.2745 58.3179C49.5984 58.5781 50.0032 58.7083 50.489 58.7083Z" fill="#322020"/>
<path d="M55.963 60.209V58.8731L57.2729 58.6128V52.4275L55.8936 52.1672V50.8226H59.2769L59.381 52.0545C59.6875 51.6091 60.0692 51.265 60.5261 51.0221C60.9888 50.7734 61.5237 50.6491 62.131 50.6491C62.744 50.6491 63.2674 50.7879 63.7012 51.0655C64.1407 51.3373 64.4733 51.7508 64.6988 52.306C64.988 51.7913 65.3668 51.3865 65.8353 51.0915C66.3095 50.7966 66.8647 50.6491 67.5009 50.6491C68.4436 50.6491 69.1838 50.9701 69.7217 51.612C70.2653 52.254 70.5372 53.2256 70.5372 54.5269V58.6128L71.8471 58.8731V60.209H67.1192V58.8731L68.351 58.6128V54.5182C68.351 53.7259 68.218 53.1707 67.952 52.8526C67.6859 52.5345 67.2956 52.3754 66.7808 52.3754C66.3008 52.3754 65.9047 52.5287 65.5924 52.8352C65.2858 53.1417 65.0863 53.5321 64.9938 54.0064V58.6128L66.1823 58.8731V60.209H61.6278V58.8731L62.8163 58.6128V54.5182C62.8163 53.7548 62.6804 53.2082 62.4086 52.8786C62.1368 52.5432 61.7435 52.3754 61.2288 52.3754C60.8008 52.3754 60.4394 52.4622 60.1444 52.6357C59.8552 52.8092 59.6239 53.055 59.4504 53.3731V58.6128L60.6736 58.8731V60.209H55.963Z" fill="#322020"/>
<path d="M77.1649 60.3912C76.2801 60.3912 75.508 60.1946 74.8487 59.8013C74.1952 59.4023 73.6862 58.8528 73.3219 58.153C72.9633 57.4533 72.784 56.6523 72.784 55.75V55.3857C72.784 54.4719 72.9604 53.6594 73.3132 52.948C73.6718 52.2309 74.1633 51.6699 74.7879 51.265C75.4126 50.8544 76.1239 50.6491 76.922 50.6491C77.7722 50.6491 78.4835 50.8197 79.0561 51.1609C79.6344 51.5021 80.0711 51.988 80.366 52.6183C80.661 53.2429 80.8085 53.9948 80.8085 54.8739V56.1231H75.0482L75.0309 56.1665C75.054 56.658 75.1552 57.0947 75.3345 57.4764C75.5195 57.8581 75.7798 58.1588 76.1152 58.3786C76.4565 58.5984 76.87 58.7083 77.3558 58.7083C77.8647 58.7083 78.3274 58.6389 78.7438 58.5001C79.1602 58.3612 79.5448 58.1646 79.8976 57.9101L80.5829 59.2808C80.2128 59.5931 79.7414 59.8563 79.1689 60.0702C78.5963 60.2842 77.9283 60.3912 77.1649 60.3912ZM75.0829 54.5876H78.7178V54.362C78.7178 53.9514 78.6542 53.5928 78.5269 53.2863C78.4055 52.974 78.2117 52.7311 77.9457 52.5576C77.6854 52.3841 77.3529 52.2974 76.9481 52.2974C76.5953 52.2974 76.2859 52.3957 76.0198 52.5923C75.7538 52.789 75.5398 53.0579 75.3779 53.3991C75.2217 53.7345 75.1147 54.1162 75.0569 54.5442L75.0829 54.5876Z" fill="#322020"/>
<path d="M86.3171 60.209V58.8731L87.6271 58.6128V48.2808L86.2391 48.0205V46.6759H89.8045V58.6128L91.1145 58.8731V60.209H86.3171Z" fill="#322020"/>
<path d="M96.3369 60.3912C95.452 60.3912 94.6799 60.1946 94.0206 59.8013C93.3671 59.4023 92.8582 58.8528 92.4938 58.153C92.1352 57.4533 91.956 56.6523 91.956 55.75V55.3857C91.956 54.4719 92.1324 53.6594 92.4851 52.948C92.8437 52.2309 93.3353 51.6699 93.9599 51.265C94.5845 50.8544 95.2959 50.6491 96.094 50.6491C96.9441 50.6491 97.6555 50.8197 98.228 51.1609C98.8064 51.5021 99.243 51.988 99.538 52.6183C99.8329 53.2429 99.9804 53.9948 99.9804 54.8739V56.1231H94.2202L94.2028 56.1665C94.2259 56.658 94.3271 57.0947 94.5064 57.4764C94.6915 57.8581 94.9518 58.1588 95.2872 58.3786C95.6284 58.5984 96.0419 58.7083 96.5277 58.7083C97.0367 58.7083 97.4993 58.6389 97.9157 58.5001C98.3321 58.3612 98.7167 58.1646 99.0695 57.9101L99.7549 59.2808C99.3847 59.5931 98.9134 59.8563 98.3408 60.0702C97.7683 60.2842 97.1003 60.3912 96.3369 60.3912ZM94.2549 54.5876H97.8897V54.362C97.8897 53.9514 97.8261 53.5928 97.6989 53.2863C97.5774 52.974 97.3837 52.7311 97.1176 52.5576C96.8574 52.3841 96.5248 52.2974 96.12 52.2974C95.7672 52.2974 95.4578 52.3957 95.1918 52.5923C94.9257 52.789 94.7117 53.0579 94.5498 53.3991C94.3937 53.7345 94.2867 54.1162 94.2288 54.5442L94.2549 54.5876Z" fill="#322020"/>
<path d="M105.506 64.0001C105.044 64.0001 104.529 63.9364 103.962 63.8092C103.401 63.6878 102.907 63.5171 102.479 63.2974L102.93 61.7012C103.3 61.8689 103.708 62.0048 104.153 62.1089C104.598 62.213 105.021 62.265 105.42 62.265C106.137 62.265 106.66 62.0655 106.99 61.6665C107.325 61.2732 107.493 60.7151 107.493 59.9922V59.2548C107.204 59.6249 106.86 59.9083 106.461 60.1049C106.062 60.2958 105.605 60.3912 105.09 60.3912C104.327 60.3912 103.667 60.2004 103.112 59.8187C102.563 59.437 102.141 58.902 101.846 58.2138C101.556 57.5255 101.412 56.7274 101.412 55.8194V55.6373C101.412 54.6367 101.556 53.7635 101.846 53.0174C102.141 52.2713 102.56 51.6901 103.103 51.2737C103.653 50.8573 104.306 50.6491 105.064 50.6491C105.637 50.6491 106.134 50.7677 106.556 51.0048C106.978 51.2361 107.337 51.5687 107.632 52.0024L107.797 50.8226H109.679V60.0008C109.679 60.8163 109.514 61.5219 109.185 62.1176C108.855 62.719 108.378 63.1817 107.753 63.5056C107.129 63.8352 106.38 64.0001 105.506 64.0001ZM105.68 58.6649C106.102 58.6649 106.461 58.5752 106.756 58.396C107.056 58.2167 107.302 57.9564 107.493 57.6152V53.4338C107.302 53.1041 107.056 52.8468 106.756 52.6617C106.455 52.4709 106.099 52.3754 105.689 52.3754C105.209 52.3754 104.812 52.5142 104.5 52.7918C104.194 53.0637 103.965 53.4454 103.815 53.937C103.67 54.4228 103.598 54.9895 103.598 55.6373V55.8194C103.598 56.687 103.763 57.3781 104.092 57.8928C104.428 58.4075 104.957 58.6649 105.68 58.6649ZM109.384 52.4709L108.465 50.8226H110.807V52.1672L109.384 52.4709Z" fill="#322020"/>
<path d="M114.728 60.3912C113.774 60.3912 113.031 60.1454 112.499 59.6538C111.966 59.1623 111.7 58.4856 111.7 57.6239C111.7 57.034 111.862 56.5163 112.186 56.071C112.51 55.6257 112.984 55.2787 113.609 55.03C114.234 54.7755 114.991 54.6483 115.882 54.6483H117.313V53.8589C117.313 53.3615 117.163 52.9653 116.862 52.6704C116.567 52.3754 116.136 52.228 115.57 52.228C115.246 52.228 114.959 52.2684 114.711 52.3494C114.462 52.4246 114.239 52.5345 114.043 52.6791L113.843 53.9456H112.238L112.221 51.6294C112.684 51.3286 113.198 51.0915 113.765 50.918C114.332 50.7387 114.962 50.6491 115.656 50.6491C116.848 50.6491 117.785 50.9296 118.467 51.4906C119.155 52.0458 119.499 52.8439 119.499 53.8849V58.0229C119.499 58.1502 119.499 58.2745 119.499 58.396C119.505 58.5174 119.514 58.636 119.525 58.7516L120.48 58.8731V60.209H117.626C117.568 60.0066 117.513 59.81 117.461 59.6191C117.414 59.4283 117.38 59.2374 117.357 59.0466C117.044 59.4399 116.666 59.7637 116.22 60.0182C115.781 60.2669 115.283 60.3912 114.728 60.3912ZM115.223 58.6996C115.662 58.6996 116.073 58.5984 116.454 58.396C116.836 58.1877 117.122 57.9275 117.313 57.6152V56.045H115.856C115.202 56.045 114.708 56.1983 114.372 56.5048C114.043 56.8055 113.878 57.1583 113.878 57.5631C113.878 57.9275 113.994 58.208 114.225 58.4046C114.456 58.6013 114.789 58.6996 115.223 58.6996Z" fill="#322020"/>
<path d="M121.434 60.209V58.8731L122.744 58.6128V48.2808L121.356 48.0205V46.6759H124.921V58.6128L126.231 58.8731V60.209H121.434Z" fill="#322020"/>
</g>
</g>
</g>
</svg>
