<svg width="456" height="360" viewBox="0 0 456 360" fill="none" xmlns="http://www.w3.org/2000/svg" preserveAspectRatio="none">
<g opacity="0.5">
<path opacity="0.5" d="M28.2521 250.184C34.7615 255.004 43.1552 260.169 43.3265 268.948C43.3265 271.875 42.2987 274.801 41.0996 277.556C33.3911 297.008 23.7983 315.772 19.0019 336.43C17.8028 341.939 16.775 347.62 16.4324 353.301H439.2C449.821 342.972 458.9 328.856 455.131 314.395C450.164 295.115 425.839 288.229 421.899 268.604C417.959 249.495 436.288 232.797 436.802 213.172C437.145 200.605 429.608 188.899 420.015 182.186C410.422 175.644 398.774 173.406 387.468 172.373C372.051 171.168 356.634 172.029 341.559 175.128C324.429 178.571 307.299 184.768 289.998 182.53C283.146 181.669 276.294 179.259 270.984 174.611C263.789 168.414 259.678 158.773 256.766 149.305C248.715 122.967 247.687 93.3573 234.326 69.9451C216.682 39.3028 181.394 25.7031 149.19 29.4904C116.985 33.2776 87.6931 51.8696 61.9982 73.9045C36.9884 95.423 13.6916 121.934 4.09882 155.331C-5.66527 188.899 1.87192 230.559 28.2521 250.184Z" fill="#FCFAF1"/>
</g>
<path d="M230.728 83.5448C230.899 83.0284 210.172 71.1501 221.307 30.3511L244.432 29.6625L230.728 83.5448Z" fill="black"/>
<path d="M295.479 43.2623C292.739 25.8754 275.437 -3.21763 244.946 14.6858C235.353 20.3666 231.242 30.5234 229.358 41.1966C227.987 48.5989 230.557 121.59 230.557 121.59C233.126 150.855 276.808 157.741 278.349 122.106L276.636 97.8332C298.563 90.603 298.563 62.7151 295.479 43.2623Z" fill="#F1BE9B"/>
<path d="M276.465 97.6612C276.465 97.6612 263.96 101.793 240.321 87.1602C240.321 87.1602 253.168 106.613 277.15 114.532L276.465 97.6612Z" fill="#D8A98A"/>
<path d="M215.311 51.8698C214.112 56.8621 217.196 62.0265 222.163 63.2315C227.131 64.4366 232.27 61.3379 233.469 56.3456C234.668 51.3533 231.585 46.1889 226.617 44.9838C221.649 43.7788 216.51 46.8775 215.311 51.8698Z" fill="#F1BE9B"/>
<path d="M228.844 56.6899C227.302 55.657 225.932 54.6241 224.562 54.1077C223.877 53.7634 223.363 53.7634 222.506 53.9355C221.821 53.9355 220.964 54.2798 220.108 54.6241C220.451 53.7634 221.136 52.9026 221.992 52.3862C222.849 51.8698 224.219 51.6976 225.247 52.214C226.275 52.5583 227.131 53.2469 227.645 54.1077C228.33 54.7963 228.673 55.657 228.844 56.6899Z" fill="black"/>
<path d="M273.382 35.86C274.923 37.4093 276.123 38.9586 277.15 40.6801C277.664 41.5409 278.178 42.4016 278.692 43.2623C279.206 44.1231 279.548 44.9838 280.062 46.0167L280.405 46.7053L279.891 47.0496C277.664 48.5989 275.266 50.1483 272.697 51.5254C274.581 49.4597 276.636 47.566 278.692 45.6724L278.521 46.7053C278.007 45.8446 277.322 44.9838 276.979 44.1231C276.465 43.2623 275.951 42.4016 275.609 41.5409C274.581 39.8194 273.724 37.9258 273.382 35.86Z" fill="black"/>
<path d="M264.132 38.0979C264.645 39.8193 264.817 41.5408 264.817 43.4344C264.817 44.2952 264.645 45.3281 264.132 46.3609C263.789 47.3938 262.932 48.4267 261.733 48.771C260.534 49.2875 259.164 48.9432 258.307 48.4267C257.451 47.9103 256.594 47.2217 256.08 46.5331C254.881 45.1559 254.025 43.6066 253.34 41.8851C253.168 41.5408 253.34 41.0244 253.854 40.8522C254.196 40.6801 254.539 40.8522 254.881 41.1965C255.738 42.5737 256.766 43.9509 257.965 44.9838C258.993 46.0167 260.363 46.8774 261.048 46.5331C261.905 46.3609 262.59 44.9838 262.761 43.4344C262.932 41.8851 263.104 40.1636 262.932 38.6143C262.932 38.27 263.275 37.9257 263.618 37.9257C263.618 37.5814 263.96 37.7536 264.132 38.0979Z" fill="black"/>
<path d="M290.169 35.1714C290.683 36.7207 291.026 38.4422 291.026 40.1636C291.026 41.0244 291.026 41.8851 290.683 42.918C290.512 43.4345 290.34 43.9509 289.998 44.4673C289.655 44.9838 289.141 45.5002 288.456 45.6724C287.771 45.8445 287.086 45.8445 286.4 45.5002C285.886 45.3281 285.373 44.9838 285.03 44.6395C284.345 43.9509 283.831 43.2623 283.317 42.5737C282.289 41.1965 281.775 39.6472 281.261 37.9257C281.09 37.4093 281.433 37.065 281.775 36.8928C282.118 36.7207 282.461 36.8928 282.803 37.2371C283.66 38.6143 284.516 39.8193 285.373 41.0244C285.887 41.5408 286.229 42.2294 286.743 42.5737C287.257 42.918 287.6 43.0902 287.771 43.0902C287.942 43.0902 288.285 42.7459 288.456 42.2294C288.627 41.713 288.799 40.8522 288.799 40.1636C288.97 38.6143 288.97 37.065 288.799 35.5157C288.799 35.1714 289.141 34.8271 289.484 34.8271C289.655 34.6549 289.998 34.8271 290.169 35.1714Z" fill="black"/>
<path d="M279.72 62.3706C279.378 63.5757 278.692 64.7807 277.665 65.6414C276.637 66.5022 275.438 67.1908 273.896 67.1908C272.354 67.1908 270.984 66.5022 270.127 65.6414C269.1 64.7807 268.586 63.5757 268.414 62.1985C269.442 62.8871 270.47 63.5757 271.326 63.92C272.183 64.4364 273.211 64.6086 273.896 64.6086C274.752 64.6086 275.609 64.4364 276.637 63.92C277.665 63.5757 278.521 62.8871 279.72 62.3706Z" fill="black"/>
<path d="M220.792 33.622C220.792 33.622 223.019 42.0573 225.418 43.4344C227.644 44.6395 234.839 48.771 234.839 48.771C234.839 48.771 244.603 37.9257 247.687 17.268C247.687 17.268 274.409 35.3435 292.225 22.9488C292.225 22.9488 288.113 2.46323 265.844 0.225308C251.455 -1.32402 237.409 5.2176 228.672 16.7515C225.418 21.2274 222.334 26.9082 220.792 33.622Z" fill="black"/>
<path d="M227.645 109.367C227.816 109.539 226.96 110.4 225.075 111.433C223.191 112.466 219.936 113.326 215.997 112.982C213.941 112.81 211.885 112.294 209.658 110.916C209.145 110.572 208.288 110.056 207.945 108.851C207.774 108.162 207.945 107.646 208.117 106.957C208.459 106.441 208.802 105.924 209.316 105.752C210.172 105.236 210.858 105.063 211.543 104.891C212.228 104.891 212.913 104.719 213.427 104.719C218.737 104.375 224.219 106.096 229.701 107.818L228.501 111.089C228.33 111.089 228.33 110.916 228.159 110.916C222.506 108.851 217.538 104.719 215.311 99.7268C214.969 99.0382 214.797 98.5218 214.626 97.8332L214.284 96.8003C214.284 96.456 214.112 96.1117 214.112 95.5952C214.112 95.0788 214.112 94.3902 214.797 93.7016C215.483 93.013 216.339 92.8409 216.853 93.013C217.367 93.013 217.71 93.1852 218.052 93.3573L218.909 93.7016C220.964 94.7345 222.677 96.1117 224.219 97.4889C227.131 100.243 228.673 102.998 229.529 105.063C230.386 107.129 230.557 108.334 230.214 108.334C230.043 108.506 229.358 107.301 228.33 105.58C227.131 103.858 225.418 101.448 222.506 99.2104C221.136 98.1775 219.423 96.9724 217.538 96.1117L216.853 95.7674C216.682 95.7674 216.51 95.5952 216.51 95.5952C216.51 95.5952 216.51 95.5952 216.51 95.4231V95.2509C216.51 95.0788 216.51 95.0788 216.51 94.9067C216.51 94.7345 216.51 94.9066 216.51 94.7345C216.51 94.7345 216.51 94.7345 216.853 94.9067C217.024 94.9067 217.196 94.9067 217.196 94.9067C217.196 94.9067 217.196 95.2509 217.367 95.4231L217.538 96.2838C217.71 96.8003 217.881 97.3167 218.223 97.8332C220.108 101.965 224.39 105.408 229.358 107.129C229.529 107.129 229.529 107.129 229.701 107.301L228.501 110.572C223.191 108.679 218.052 107.129 213.427 107.301C212.913 107.301 212.228 107.301 211.714 107.473C211.2 107.473 210.858 107.646 210.686 107.818C210.686 107.818 210.686 107.818 210.515 107.818H210.344C210.344 107.818 210.686 107.646 210.515 107.818C210.515 107.818 210.515 107.818 210.515 107.99C210.515 107.99 210.686 108.162 210.858 108.334C212.399 109.367 214.284 110.056 215.997 110.4C219.423 111.089 222.335 110.572 224.219 110.056C226.446 109.711 227.474 109.195 227.645 109.367Z" fill="black"/>
<path d="M193.213 296.492L184.991 350.719L357.49 349.686L336.249 280.654L193.213 296.492Z" fill="#403F53"/>
<path d="M372.907 245.02C366.055 226.944 359.032 208.869 350.809 191.31C349.781 188.383 340.36 173.578 332.309 161.012C320.147 142.075 304.387 125.721 286.058 112.982C282.632 110.916 277.493 110.056 277.493 110.056C269.442 119.007 229.872 108.334 229.872 108.334C229.872 108.334 229.015 108.851 228.501 109.195C187.047 131.574 149.875 184.252 128.976 226.428C122.124 240.372 114.929 254.832 115.786 270.67C115.957 273.252 116.471 275.834 117.499 278.244C122.809 290.467 136.685 289.606 147.99 287.712C160.153 285.647 172.486 283.581 184.82 281.343C186.704 293.91 191.843 303.55 201.436 307.854C208.288 310.952 239.978 311.813 251.284 311.125C263.618 310.264 312.096 303.034 327.341 299.419C336.42 301.829 345.67 303.894 354.92 305.272C359.888 305.96 365.37 306.649 369.995 304.411C373.935 302.517 376.675 298.73 378.388 294.771C385.069 279.105 379.074 261.03 372.907 245.02Z" fill="#1C2C60"/>
<path d="M221.992 161.872L302.16 161.184L328.026 312.674L357.49 349.686L184.991 350.719L205.547 315.6L221.992 161.872Z" fill="white"/>
<path d="M188.931 319.216C188.931 318.183 192.871 317.322 197.839 316.461C202.806 315.773 206.917 315.256 207.26 316.289C207.603 317.15 203.663 319.043 198.524 319.904C193.213 320.765 188.931 320.248 188.931 319.216Z" fill="black"/>
<path d="M348.24 316.289C348.068 317.322 343.443 317.322 337.79 316.461C332.138 315.6 327.684 314.051 327.855 313.19C328.026 312.157 332.652 312.157 338.304 313.018C343.957 313.879 348.411 315.428 348.24 316.289Z" fill="black"/>
<path d="M227.987 108.851C228.501 109.195 226.959 111.949 225.418 116.597C223.876 121.245 222.334 127.959 221.992 135.706C221.135 151.027 223.705 163.249 222.848 163.594C222.334 163.766 221.135 160.667 220.107 155.675C219.08 150.683 218.223 143.452 218.566 135.533C218.908 127.615 220.964 120.557 223.191 115.736C225.418 111.088 227.645 108.678 227.987 108.851Z" fill="black"/>
<path d="M277.664 110.4C277.836 110.228 278.692 110.4 279.891 111.261C281.262 112.121 282.803 113.671 284.688 115.564C288.456 119.524 292.91 125.549 297.021 132.779C298.049 134.501 299.077 136.394 299.933 138.116C300.79 140.009 301.475 141.903 301.818 143.625C302.674 147.24 303.017 150.51 303.017 153.265C302.845 158.946 300.961 162.044 300.619 161.872C300.105 161.7 300.961 158.429 300.619 153.265C300.447 150.683 299.933 147.584 298.906 144.485C298.392 142.764 297.707 141.214 297.021 139.493C296.165 137.771 295.308 136.05 294.281 134.329C290.169 127.443 286.229 121.245 283.146 116.942C281.604 114.876 280.234 113.154 279.377 111.949C278.178 111.261 277.493 110.744 277.664 110.4Z" fill="black"/>
<path d="M228.844 255.348C228.844 255.348 304.559 297.353 338.819 302.173L340.018 239.339L244.775 213.516L228.844 255.348Z" fill="#1C2C60"/>
<path d="M325.286 233.658C324.772 233.658 324.258 230.559 323.402 225.739C322.717 220.747 321.689 214.033 320.832 206.458C319.976 198.884 319.291 191.998 319.119 187.006C318.948 182.013 319.119 178.915 319.462 178.915C319.976 178.915 320.661 181.841 321.518 186.834C322.374 191.654 323.402 198.54 324.258 206.114C325.115 213.689 325.629 220.575 325.8 225.567C326.143 230.559 325.8 233.658 325.286 233.658Z" fill="black"/>
<path d="M314.665 214.377C302.674 206.286 292.225 206.286 288.457 208.352C288.457 208.352 295.137 222.985 296.85 228.321C297.022 228.666 325.115 234.174 324.943 233.658C323.744 229.182 323.23 220.23 314.665 214.377Z" fill="#F1BE9B"/>
<path d="M214.798 216.443C214.798 217.476 207.774 218.681 199.209 220.058C190.644 221.608 183.621 222.813 183.278 221.78C182.936 220.919 189.788 218.165 198.524 216.615C207.432 215.238 214.798 215.582 214.798 216.443Z" fill="black"/>
<path d="M241.692 214.55L241.349 212.656C237.923 211.107 234.326 209.729 230.9 208.352C223.191 205.253 214.626 202.499 206.575 203.876C206.233 210.074 205.89 216.271 205.547 222.468C206.061 222.641 206.575 222.64 206.918 222.64C212.913 222.813 218.909 222.813 224.904 222.813C230.386 222.641 236.21 222.296 241.178 220.23C242.719 219.542 244.432 218.509 244.775 216.787C245.118 215.238 243.062 213.344 241.692 214.55Z" fill="#F1BE9B"/>
<path d="M205.547 218.509C205.719 218.509 206.061 219.542 206.233 221.263C206.404 222.124 206.404 223.157 206.575 224.534C206.575 225.223 206.746 225.911 206.746 226.6V227.116V227.461V227.633C207.26 227.633 202.293 227.805 204.348 227.633C204.348 227.288 204.348 226.944 204.348 226.428C203.834 220.058 203.492 211.451 203.32 201.811C202.978 182.53 203.492 166.865 204.348 166.865C205.376 166.865 206.404 182.53 206.746 201.811C206.918 211.451 206.918 220.23 206.746 226.428C206.746 226.772 206.746 227.288 206.746 227.633C208.802 227.633 204.006 227.633 204.348 227.633V227.461V227.116V226.6C204.348 225.911 204.348 225.223 204.52 224.534C204.52 223.329 204.691 222.124 204.691 221.263C205.033 219.37 205.376 218.509 205.547 218.509Z" fill="black"/>
<path d="M187.904 279.621C238.266 272.563 238.094 271.703 306.1 252.422C303.017 243.126 300.276 231.936 288.628 204.393C288.628 204.393 233.298 213.172 207.26 217.82C201.265 218.853 195.269 220.058 189.445 221.78C188.76 238.478 188.931 262.923 187.904 279.621Z" fill="#1C2C60"/>
<path d="M347.897 241.232C347.726 241.749 346.013 241.405 343.272 240.716C340.532 240.027 336.934 238.822 332.823 237.445C324.772 235.035 318.091 233.486 318.091 232.453C318.263 231.592 325.286 231.592 333.68 234.174C337.791 235.552 341.388 237.101 343.958 238.478C346.527 239.855 348.069 240.888 347.897 241.232Z" fill="black"/>
<path d="M277.494 261.374C257.281 266.194 219.081 280.655 205.205 299.591C191.33 318.527 194.585 342.456 212.229 342.456C229.873 342.456 287.087 342.456 300.277 342.456C313.467 342.456 318.606 316.289 315.523 298.042C312.61 279.966 301.476 255.693 277.494 261.374Z" fill="#FCA128"/>
<path d="M309.527 254.66C309.527 254.66 281.263 269.465 268.929 284.614C256.424 299.763 279.892 328.856 296.851 327.307C313.81 325.758 319.805 318.183 320.148 301.14C320.491 287.541 317.236 276.867 319.463 271.014C323.574 260.513 327.856 260.513 325.801 255.005C323.917 249.84 322.204 247.258 309.527 254.66Z" fill="#DB7E1F"/>
<path d="M316.38 251.217L325.287 260.685L331.968 255.521C331.968 255.521 344.815 257.759 346.186 251.217C347.899 242.782 338.991 243.815 338.991 243.815C338.991 243.815 343.959 235.035 336.422 232.797C328.885 230.56 328.199 240.2 326.829 242.954C324.773 246.225 316.38 251.217 316.38 251.217Z" fill="white"/>
<path d="M182.938 344.177C182.938 344.177 169.577 321.798 182.938 321.798C196.299 321.798 193.045 323.519 201.267 315.945C209.661 308.37 209.661 321.798 218.397 321.798C227.305 321.798 227.305 312.846 236.212 317.322C245.12 321.798 240.666 330.75 249.574 330.75C258.481 330.75 253.685 341.423 253.685 341.423L182.938 344.177Z" fill="#1DBA80"/>
<path d="M294.281 339.701C294.281 339.701 289.828 317.322 298.735 321.798C307.643 326.274 308.842 333.332 317.064 320.765C325.458 308.37 338.819 317.322 334.366 326.274C329.912 335.225 329.912 339.701 329.912 339.701H294.281Z" fill="#1DBA80"/>
<path d="M175.913 337.98C176.598 344.349 181.909 349.341 188.418 349.341H325.629C332.139 349.341 337.449 344.349 338.134 337.98H175.913Z" fill="#03061E"/>
<path d="M246.146 188.383C246.317 188.383 245.974 189.416 245.461 191.31C244.947 193.203 244.09 195.786 244.262 199.056C244.433 200.606 244.947 202.327 246.146 203.704C247.345 205.082 249.058 206.114 251.113 207.147C253.169 208.18 255.396 209.213 257.452 211.279C258.479 212.312 259.165 213.689 259.336 215.238C259.678 216.788 259.336 218.337 258.651 219.714C257.452 222.468 255.567 224.362 254.026 226.256C252.484 228.149 251.285 230.043 250.6 232.109C249.4 236.24 249.914 240.372 251.285 243.298C252.484 246.397 254.368 248.463 255.739 249.668C256.081 250.012 256.424 250.184 256.766 250.529C257.109 250.701 257.28 250.873 257.452 251.045C257.794 251.389 257.965 251.562 257.965 251.734C257.965 251.734 257.623 251.734 257.109 251.562C256.938 251.389 256.595 251.389 256.252 251.217C255.91 251.045 255.567 250.873 255.053 250.529C253.34 249.496 251.113 247.43 249.572 244.159C247.859 240.888 247.002 236.413 248.373 231.592C249.058 229.182 250.428 226.944 252.141 224.879C253.683 222.985 255.396 220.919 256.424 218.853C257.452 216.788 257.109 214.55 255.567 213C254.197 211.451 251.97 210.418 249.914 209.213C247.859 208.008 245.974 206.803 244.433 205.082C243.062 203.36 242.377 201.122 242.377 199.229C242.377 195.441 243.576 192.859 244.433 190.965C245.461 189.244 246.146 188.383 246.146 188.383Z" fill="black"/>
<path d="M277.494 184.94C277.665 185.112 276.98 185.973 275.952 187.522C274.924 189.072 273.383 191.482 272.697 194.753C272.355 196.302 272.526 198.023 273.211 199.745C273.896 201.294 275.438 202.844 277.151 204.393C278.864 205.942 280.748 207.492 282.119 210.074C282.804 211.279 283.147 213 282.975 214.55C282.804 216.099 281.948 217.476 281.091 218.681C279.207 220.919 276.98 222.296 274.924 223.846C272.869 225.223 271.327 226.772 270.128 228.494C267.73 232.109 267.216 236.24 267.73 239.511C268.072 242.782 269.443 245.192 270.47 246.913C270.642 247.258 270.984 247.602 271.156 247.946C271.327 248.291 271.498 248.463 271.67 248.635C272.012 248.979 272.183 249.324 272.012 249.324C272.012 249.324 271.67 249.324 271.327 248.979C271.156 248.807 270.813 248.635 270.47 248.463C270.128 248.118 269.957 247.946 269.614 247.43C268.244 245.881 266.531 243.471 266.017 239.855C265.331 236.24 265.674 231.592 268.244 227.461C269.443 225.395 271.498 223.501 273.554 221.952C275.609 220.403 277.665 219.025 279.207 217.132C280.748 215.41 281.091 213.172 280.063 211.279C279.035 209.385 277.322 207.836 275.609 206.287C273.896 204.737 272.355 203.016 271.327 200.778C270.47 198.712 270.47 196.302 270.984 194.58C272.012 190.965 273.896 188.727 275.096 187.178C276.466 185.629 277.322 184.94 277.494 184.94Z" fill="black"/>
<path d="M43.3263 246.569L28.252 263.095V349.341H63.1971V263.095L43.3263 246.569Z" fill="#FC7B61"/>
<path d="M43.3262 242.61V246.569L57.2015 263.095V349.341H89.0632V263.095L75.3592 246.569V242.61H43.3262Z" fill="#FCB573"/>
<path d="M57.5443 263.956C67.3084 264.128 77.0725 263.784 86.8366 263.956C87.6931 263.956 87.6931 262.579 86.8366 262.579C77.0725 262.407 67.3084 262.751 57.5443 262.579C56.5165 262.579 56.5165 263.956 57.5443 263.956Z" fill="#FB6342"/>
<path d="M45.8958 247.602C55.146 247.602 64.5675 247.602 73.8177 247.602C74.6742 247.602 74.6742 246.225 73.8177 246.225C64.5675 246.225 55.146 246.225 45.8958 246.225C45.0393 246.225 45.0393 247.602 45.8958 247.602Z" fill="#FB6342"/>
<path d="M112.017 316.978C112.531 311.985 110.476 307.165 106.193 304.066C104.48 302.861 102.253 301.829 99.6836 301.14C88.8917 298.73 83.7527 305.272 83.0675 306.304C82.3823 307.337 76.3868 313.018 78.785 323.347C81.0119 333.676 87.5213 335.742 91.8038 336.086C96.0863 336.43 104.823 336.43 108.42 330.749C110.476 327.134 111.503 321.109 112.017 316.978Z" fill="#CC2C15"/>
<path d="M97.1142 303.55C97.9707 303.722 98.8272 304.239 99.5124 304.583C100.369 302.517 101.397 300.451 102.938 298.73C102.938 298.558 103.11 298.386 103.281 298.213C103.452 298.213 103.452 298.041 103.624 298.041C104.48 297.525 105.337 298.558 104.823 299.418C103.624 301.484 102.596 303.378 101.739 305.616H101.911C101.911 305.444 102.082 305.444 102.253 305.444C102.425 305.272 102.767 305.099 102.938 305.272C103.452 305.444 103.452 305.788 103.452 306.304C103.452 306.649 103.452 306.993 103.11 307.165C102.253 307.509 101.397 307.509 100.54 307.337C100.198 307.509 99.6837 307.509 99.1698 306.993C98.9985 306.821 98.9985 306.821 98.8272 306.649C97.7994 305.96 96.9429 305.099 96.6003 304.066C96.6003 303.722 96.7716 303.55 97.1142 303.55Z" fill="#515C43"/>
<path d="M77.0723 309.92C76.0445 305.099 72.4472 300.968 67.4795 299.419C65.4239 298.73 63.0257 298.386 60.2849 298.73C49.1504 299.763 46.2383 307.509 46.067 308.714C45.7244 309.92 41.7845 317.15 47.0948 326.274C52.4051 335.397 59.0858 335.397 63.3683 334.365C67.6508 333.332 75.8732 330.749 77.5862 324.208C78.7853 320.076 77.9288 313.879 77.0723 309.92Z" fill="#FC9F28"/>
<path d="M58.7432 301.829C59.5997 301.656 60.4562 302.001 61.3127 302.173C61.484 299.935 61.8266 297.525 62.6831 295.631C62.6831 295.459 62.6831 295.287 62.8544 295.115C63.0257 295.115 63.0257 294.943 63.197 294.771C63.8822 294.082 64.91 294.771 64.7387 295.631C64.2248 297.869 63.8822 300.107 63.7109 302.345H63.8822C63.8822 302.173 64.0535 302.173 64.0535 302.001C64.2248 301.829 64.3961 301.484 64.7387 301.656C65.2526 301.656 65.4239 302.001 65.5952 302.517C65.7665 302.862 65.7665 303.206 65.4239 303.55C64.7387 304.067 63.8822 304.411 63.0257 304.583C62.6831 304.927 62.1692 304.927 61.6553 304.755C61.484 304.755 61.3127 304.583 61.3127 304.411C60.1136 304.067 59.0858 303.55 58.4006 302.517C58.4006 302.173 58.5719 301.829 58.7432 301.829Z" fill="#707C5F"/>
<path d="M142.851 303.894C139.597 300.107 134.629 298.385 129.49 299.418C127.434 299.763 125.208 300.623 122.981 302.345C113.731 308.714 115.101 316.805 115.444 318.182C115.786 319.388 115.786 327.651 124.865 332.987C133.944 338.324 139.768 335.053 143.023 332.126C146.277 329.2 152.102 322.831 150.56 316.289C149.19 311.813 145.421 306.821 142.851 303.894Z" fill="#FC9F28"/>
<path d="M122.809 305.616C123.494 305.099 124.351 304.927 125.207 304.583C124.18 302.517 123.494 300.279 123.323 298.213C123.152 298.041 123.152 297.869 123.152 297.697C123.152 297.525 123.152 297.525 123.323 297.353C123.494 296.32 124.865 296.492 125.036 297.353C125.721 299.591 126.578 301.656 127.434 303.722L127.606 303.55C127.606 303.378 127.606 303.378 127.606 303.206C127.606 302.861 127.777 302.689 127.948 302.517C128.462 302.345 128.633 302.517 129.147 302.861C129.49 303.034 129.661 303.378 129.49 303.722C129.147 304.583 128.633 305.271 127.948 305.788C127.777 306.132 127.434 306.476 126.92 306.476C126.749 306.476 126.578 306.476 126.407 306.476C125.207 306.821 124.008 306.821 122.981 306.304C122.638 306.132 122.638 305.788 122.809 305.616Z" fill="#707C5F"/>
<path d="M57.8867 349.341H133.773C144.736 349.341 153.472 340.39 153.472 329.544H38.1873C38.1873 340.39 47.0948 349.341 57.8867 349.341Z" fill="#673B17"/>
<path d="M427.552 333.332C427.723 332.987 427.723 332.815 427.894 332.471C428.066 331.955 428.237 331.266 428.237 330.749C428.237 330.061 428.408 329.372 428.408 328.684C428.408 328.339 428.408 327.995 428.408 327.651C428.408 327.479 428.408 327.134 428.408 326.962C428.237 326.962 428.066 327.134 427.723 327.307C427.552 327.479 427.381 327.479 427.209 327.651C427.038 327.651 427.038 327.823 426.867 327.823C426.867 327.651 427.038 327.307 427.038 327.134C427.552 326.274 427.894 325.413 428.237 324.552C428.58 323.864 428.751 323.003 428.922 322.142C428.922 321.626 429.094 321.281 429.094 320.765C429.094 320.248 429.265 319.732 429.436 319.216C429.779 317.322 429.779 315.256 429.094 313.535C428.922 313.018 428.751 312.674 428.58 312.157C428.408 311.813 428.237 311.469 427.894 311.125C427.381 310.436 427.038 309.747 426.524 309.059C426.353 308.887 426.01 308.715 425.668 308.715C425.496 308.198 425.496 307.682 425.325 306.993C425.154 306.477 424.982 305.96 424.64 305.444C424.297 304.755 423.955 304.411 423.441 303.894C423.269 303.55 423.098 303.378 422.755 303.034C422.584 302.689 422.242 302.345 422.07 302.173C421.042 301.14 420.015 300.279 418.816 299.591C418.473 299.419 417.959 299.074 417.616 298.902C417.445 298.73 417.274 298.558 417.103 298.558C416.931 298.558 416.931 298.73 416.931 298.902C416.76 299.419 416.76 299.935 416.76 300.279C416.76 300.624 416.76 300.796 416.589 300.968C416.417 300.279 416.075 299.591 415.903 298.902C415.561 298.213 415.218 297.353 414.704 296.664C414.362 296.32 414.019 295.803 413.505 295.631L413.163 295.459C412.991 295.459 412.991 295.631 412.82 295.631C412.649 295.803 412.306 295.976 412.135 296.148C411.964 296.32 411.792 296.492 411.621 296.836C411.621 296.492 411.621 296.148 411.45 295.803C411.45 295.459 411.45 295.287 411.278 294.943C411.107 294.771 411.107 294.426 410.936 294.254C410.936 294.082 410.764 293.91 410.593 293.91C410.422 293.91 410.422 293.91 410.251 293.91C409.908 293.91 409.737 294.082 409.394 294.082C409.051 294.254 408.538 294.426 408.195 294.598C407.51 294.943 406.996 295.287 406.311 295.459C405.968 295.631 405.454 295.803 405.112 295.976C404.94 296.148 404.598 296.148 404.426 296.32C404.598 295.976 404.598 295.459 404.598 295.115C404.598 294.943 404.598 294.254 404.426 294.254C404.255 294.254 404.084 294.254 404.084 294.254C403.741 294.254 403.57 294.426 403.227 294.426C402.542 294.598 401.686 294.771 401 295.115C400.315 295.287 399.801 295.631 399.287 296.148C398.602 296.492 398.088 297.008 397.574 297.525C396.889 298.041 396.204 298.73 395.69 299.419C395.519 299.591 395.519 299.591 395.347 299.763C395.176 299.763 394.834 299.935 394.662 299.935C394.148 300.107 393.806 300.279 393.292 300.451C393.121 300.624 392.949 300.796 392.607 300.968C392.264 301.14 392.093 301.312 391.75 301.484C391.408 301.656 391.236 301.829 391.065 302.001C390.722 302.173 390.38 302.517 390.037 302.861C389.695 303.206 389.352 303.55 389.009 303.894C388.667 304.239 388.495 304.411 388.153 304.755C387.982 304.927 387.81 305.099 387.639 305.444C387.296 305.788 387.125 306.132 386.954 306.649C386.954 306.649 386.954 306.821 386.782 306.821V306.649C386.782 306.477 386.611 306.477 386.611 306.304C386.44 306.132 386.097 305.616 385.926 305.616C385.755 305.616 385.583 305.788 385.583 305.96C385.412 306.132 385.241 306.304 385.069 306.477C384.898 306.821 384.556 307.165 384.213 307.682C383.87 308.026 383.699 308.542 383.528 308.887C383.014 309.747 382.329 310.436 382.157 311.297C381.986 312.33 381.643 313.19 381.472 314.223C381.129 315.428 381.129 316.461 381.129 317.666C381.129 318.527 381.301 319.216 381.301 320.076C381.301 320.076 381.301 320.076 381.129 319.904C380.958 319.732 380.787 319.56 380.616 319.388L380.444 319.216C380.273 319.216 380.273 319.388 380.273 319.388C380.102 319.904 379.93 320.593 379.759 321.281C379.588 322.142 379.588 323.003 379.759 323.864C379.759 324.38 379.93 325.069 379.93 325.585C379.93 326.101 379.93 326.446 380.102 326.962C380.273 327.479 380.444 327.995 380.616 328.512C380.787 328.684 380.787 328.856 380.958 329.028C380.958 329.2 380.958 329.544 380.787 329.717C380.787 329.889 380.616 330.233 380.616 330.405C380.616 330.922 380.616 331.438 380.616 332.127C380.616 332.815 380.787 333.332 380.958 334.02C381.129 334.537 381.472 334.881 381.643 335.397C381.815 335.914 382.157 336.258 382.5 336.775C382.671 337.119 382.842 337.463 383.185 337.635C383.528 337.808 383.87 338.324 384.042 338.668C384.384 339.185 384.898 339.357 385.412 339.701C386.269 340.218 387.125 340.734 387.982 340.906C388.324 341.078 388.667 341.251 388.838 341.595C389.009 341.939 389.181 342.283 389.352 342.456C389.523 342.628 389.523 342.8 389.695 342.972C389.695 343.144 389.866 343.144 389.866 343.316C389.866 343.661 390.037 344.005 390.037 344.349C390.037 344.694 389.866 345.038 389.866 345.554C389.695 345.899 389.694 346.243 389.523 346.759C389.352 347.104 387.296 353.129 388.667 355.022C389.866 356.916 394.148 357.26 396.033 357.432C399.116 357.777 399.973 356.744 401 353.989C401.686 352.44 401.857 350.547 402.713 349.169C403.399 347.792 404.255 347.62 405.283 346.931C405.454 346.931 405.625 346.931 405.797 347.104C406.139 347.104 406.311 347.276 406.653 347.276C406.825 347.276 407.167 347.276 407.338 347.276C407.852 347.276 408.366 347.104 408.709 347.104C409.223 347.104 409.737 346.931 410.251 346.759C410.593 346.759 410.764 346.587 411.107 346.587C411.278 346.587 411.621 346.415 411.792 346.243C412.306 346.071 412.82 345.899 413.334 345.554C413.677 345.382 413.848 345.382 414.19 345.038C414.362 344.866 414.533 344.693 414.704 344.521C415.047 344.177 415.39 343.833 415.561 343.488C415.732 343.316 415.903 342.972 416.075 342.8C416.246 342.628 416.417 342.456 416.589 342.111C416.931 341.767 417.274 341.251 417.445 340.906C417.616 340.906 417.788 340.906 417.788 340.906C418.302 340.734 418.644 340.734 419.158 340.562C419.843 340.39 420.529 340.218 421.042 339.873C421.385 339.701 421.556 339.701 421.899 339.529C422.242 339.357 422.413 339.185 422.584 339.013C423.098 338.668 423.612 338.324 424.126 337.808C424.468 337.463 424.982 336.947 425.325 336.603C425.668 336.086 426.01 335.742 426.353 335.225C426.695 334.709 427.038 334.192 427.209 333.676C427.209 333.848 427.381 333.676 427.552 333.332Z" fill="#14715D"/>
<path d="M417.788 341.251C417.788 341.251 417.959 337.98 417.103 337.291C417.103 337.291 411.793 335.57 405.968 342.283C405.797 342.456 405.455 342.283 405.455 342.111C405.968 339.529 406.825 332.987 403.913 330.061C403.913 330.061 398.774 331.782 394.663 337.119C394.32 337.463 393.806 337.291 393.635 336.775C393.464 333.504 392.95 326.102 389.695 325.241C389.695 325.241 386.269 330.061 385.241 333.676C385.241 333.848 384.899 333.848 384.899 333.676C384.213 332.299 382.158 328.512 380.273 329.372" stroke="#185442" stroke-width="0.8077" stroke-miterlimit="10" stroke-linecap="round"/>
<path d="M379.932 319.732C379.932 319.732 385.927 320.076 387.812 328.339C387.812 328.339 387.64 318.01 397.062 314.395C397.062 314.395 402.715 322.486 399.631 332.127" stroke="#185442" stroke-width="0.8077" stroke-miterlimit="10" stroke-linecap="round"/>
<path d="M400.486 328.512C400.486 328.512 406.139 321.109 414.019 321.109C414.019 321.109 418.473 330.922 412.82 337.291" stroke="#185442" stroke-width="0.8077" stroke-miterlimit="10" stroke-linecap="round"/>
<path d="M428.408 327.651C428.408 327.651 421.042 325.929 413.505 336.603" stroke="#185442" stroke-width="0.8077" stroke-miterlimit="10" stroke-linecap="round"/>
<path d="M385.412 305.96C385.412 305.96 391.921 312.846 390.208 319.043" stroke="#185442" stroke-width="0.8077" stroke-miterlimit="10" stroke-linecap="round"/>
<path d="M395.176 300.107C395.176 300.107 401 309.231 398.088 315.773" stroke="#185442" stroke-width="0.8077" stroke-miterlimit="10" stroke-linecap="round"/>
<path d="M429.436 319.043C429.436 319.043 426.01 320.421 422.07 328.339C422.07 328.339 426.353 317.322 425.154 314.223C425.154 314.223 416.76 314.051 410.251 321.626C410.251 321.626 417.103 310.952 410.593 301.829C410.593 301.829 401.686 305.099 397.917 315.945" stroke="#185442" stroke-width="0.8077" stroke-miterlimit="10" stroke-linecap="round"/>
<path d="M404.255 294.599C404.255 294.599 405.283 298.902 398.602 307.854" stroke="#185442" stroke-width="0.8077" stroke-miterlimit="10" stroke-linecap="round"/>
<path d="M410.765 294.426C410.765 294.426 412.649 296.836 408.709 302.689" stroke="#185442" stroke-width="0.8077" stroke-miterlimit="10" stroke-linecap="round"/>
<path d="M425.668 308.715C425.668 308.715 421.556 309.231 417.103 315.945" stroke="#185442" stroke-width="0.8077" stroke-miterlimit="10" stroke-linecap="round"/>
<path d="M413.163 306.304L418.13 301.829C418.13 301.829 420.871 303.894 420.871 310.78" stroke="#185442" stroke-width="0.8077" stroke-miterlimit="10" stroke-linecap="round"/>
<path d="M416.931 298.902C416.931 298.902 416.075 300.796 416.246 303.034" stroke="#185442" stroke-width="0.8077" stroke-miterlimit="10" stroke-linecap="round"/>
<path d="M385.241 349.342H420.529C428.58 349.342 435.261 342.8 435.261 334.537V329.717H370.68V334.537C370.509 342.8 377.19 349.342 385.241 349.342Z" fill="#673B17"/>
<path d="M447.08 348.309H8.72388V359.154H447.08V348.309Z" fill="#CD7B77"/>
<path d="M144.564 288.745C144.736 291.328 145.078 293.566 145.592 295.631C149.532 310.78 170.259 313.879 178.31 300.279C180.366 296.836 181.222 292.705 181.565 288.745H144.564Z" fill="#C5442D"/>
<path d="M149.361 262.923L176.084 263.095C176.084 263.095 186.704 285.991 178.31 300.279C170.259 313.879 149.703 310.78 145.592 295.631C143.708 288.745 144.05 278.244 149.361 262.923Z" stroke="black" stroke-width="0.9771" stroke-miterlimit="10"/>
<path d="M163.236 309.059V348.825" stroke="black" stroke-width="0.9771" stroke-miterlimit="10"/>
<path d="M152.102 348.825H174.884" stroke="black" stroke-width="0.9771" stroke-miterlimit="10"/>
</svg>
